<?xml version="1.0" standalone="no"?>
<!DOCTYPE svg PUBLIC "-//W3C//DTD SVG 20010904//EN"
 "http://www.w3.org/TR/2001/REC-SVG-20010904/DTD/svg10.dtd">
<svg version="1.0" xmlns="http://www.w3.org/2000/svg"
 width="1822.000000pt" height="1147.000000pt" viewBox="0 0 1822.000000 1147.000000"
 preserveAspectRatio="xMidYMid meet">

<g transform="translate(0.000000,1147.000000) scale(0.100000,-0.100000)"
fill="#000000" stroke="none">
<path d="M2150 6794 c0 -4030 2 -4474 15 -4474 9 0 24 -13 33 -30 l17 -30
6563 0 c5987 0 6565 1 6579 16 13 13 14 17 3 24 -10 6 -11 12 -3 22 8 10 8 18
-1 31 -13 16 -167 17 -2960 17 -2939 0 -2946 0 -2946 20 0 11 5 20 10 20 6 0
10 9 10 20 0 11 5 20 10 20 6 0 10 4 10 10 0 5 11 26 25 46 14 20 25 48 25 61
0 21 -4 24 -27 21 -17 -2 -32 -12 -38 -25 -5 -13 -13 -23 -17 -23 -5 0 -8 -9
-8 -20 0 -11 -4 -20 -10 -20 -6 0 -10 33 -10 80 0 57 -4 80 -12 80 -7 0 -23 3
-35 6 -22 6 -23 4 -23 -70 0 -44 -4 -76 -10 -76 -5 0 -10 7 -10 15 0 8 -4 15
-10 15 -5 0 -10 9 -10 20 0 16 -7 20 -35 20 -28 0 -35 -4 -35 -20 0 -18 17
-57 30 -70 15 -14 40 -61 40 -75 0 -8 5 -15 10 -15 6 0 10 -9 10 -20 0 -20 -7
-20 -3540 -20 l-3540 0 0 1095 c0 723 3 1095 10 1095 6 0 10 33 10 79 0 44 4
83 10 86 6 3 10 30 10 59 0 29 3 56 8 60 7 8 29 102 39 168 3 21 9 38 14 38 5
0 9 14 9 30 0 17 5 30 10 30 6 0 10 20 10 45 0 25 5 45 10 45 6 0 10 14 10 30
0 17 5 30 10 30 6 0 10 8 10 18 0 9 7 26 15 36 8 11 15 30 15 42 0 13 4 26 10
29 5 3 10 15 10 26 0 10 5 19 10 19 6 0 10 11 10 25 0 14 5 25 10 25 6 0 10 9
10 19 0 31 17 33 38 6 11 -14 27 -25 36 -25 9 0 16 -4 16 -10 0 -5 9 -10 20
-10 11 0 20 -4 20 -10 0 -6 28 -10 65 -10 37 0 65 4 65 10 0 6 9 10 20 10 22
0 70 41 70 60 0 5 4 10 9 10 16 0 44 91 38 128 -10 73 -58 152 -91 152 -9 0
-16 4 -16 9 0 4 -21 15 -47 23 -37 12 -47 20 -45 34 2 11 8 21 13 22 5 2 9 8
9 13 0 12 52 93 63 97 4 2 7 10 7 18 0 8 5 14 10 14 6 0 10 7 10 15 0 8 5 15
10 15 6 0 10 5 10 11 0 6 6 16 13 24 6 7 21 25 32 41 11 15 26 33 33 40 6 7
12 17 12 23 0 6 5 11 10 11 6 0 10 4 10 10 0 5 16 27 35 47 19 20 35 41 35 45
0 15 96 108 112 108 9 0 23 -6 30 -13 29 -26 60 -37 107 -37 28 0 53 5 56 10
3 6 15 10 25 10 27 0 95 68 114 114 9 21 16 53 16 70 0 33 -44 136 -62 147 -7
5 15 33 58 73 94 90 112 106 119 106 3 0 21 15 39 33 44 43 85 77 92 77 4 0
14 8 23 18 9 9 34 30 56 47 22 16 47 37 56 47 9 10 22 18 28 18 7 0 18 6 25
13 7 6 25 21 40 32 27 20 44 33 85 68 12 9 26 17 32 17 7 0 19 8 28 18 9 10
31 27 49 37 17 11 32 23 32 27 0 4 7 8 16 8 9 0 24 8 33 18 18 19 41 34 89 59
17 9 32 20 32 25 0 4 7 8 15 8 8 0 15 5 15 10 0 6 9 10 20 10 11 0 20 4 20 9
0 5 16 17 36 27 20 11 44 23 55 29 10 5 19 13 19 17 0 5 9 8 20 8 11 0 20 5
20 10 0 6 7 10 15 10 8 0 15 5 15 10 0 6 9 10 20 10 11 0 20 4 20 8 0 5 18 17
40 28 22 10 40 22 40 27 0 4 7 7 15 7 8 0 15 5 15 10 0 6 11 10 24 10 13 0 27
6 29 13 3 6 6 0 6 -15 1 -15 -3 -30 -9 -33 -21 -13 -6 -91 29 -155 19 -34 37
-50 55 -50 9 0 16 -4 16 -9 0 -16 74 -39 110 -34 50 6 110 25 110 35 0 4 6 8
13 8 12 0 40 41 64 94 15 33 17 126 3 126 -5 0 -10 7 -10 15 0 17 -11 33 -47
68 -37 38 -51 47 -73 47 -13 0 -20 7 -20 20 0 15 7 20 25 20 14 0 25 4 25 8 0
5 20 17 45 28 25 10 45 22 45 26 0 4 14 8 30 8 17 0 30 3 30 8 0 4 15 13 33
21 17 8 54 25 81 38 28 12 58 23 68 23 10 0 18 5 18 10 0 6 9 10 20 10 11 0
20 5 20 10 0 6 11 10 25 10 14 0 25 5 25 10 0 6 9 10 19 10 11 0 22 4 26 9 3
5 19 12 35 16 17 4 30 11 30 16 0 5 11 9 24 9 14 0 28 5 31 10 3 6 17 10 31
10 13 0 24 5 24 10 0 6 8 10 18 10 10 0 22 4 27 8 6 5 36 17 67 26 32 10 60
22 64 27 3 5 16 9 29 9 13 0 27 5 30 10 3 6 19 10 36 10 16 0 29 5 29 10 0 6
11 10 25 10 14 0 25 5 25 10 0 6 11 10 25 10 14 0 33 4 43 9 46 23 95 41 112
41 10 0 22 5 25 10 3 6 17 10 31 10 13 0 24 5 24 10 0 6 18 10 40 10 22 0 40
5 40 10 0 6 11 10 25 10 14 0 33 4 43 9 26 14 122 41 143 41 11 0 19 5 19 10
0 6 18 10 39 10 31 0 46 -7 74 -35 19 -19 42 -35 51 -35 9 0 16 -4 16 -10 0
-6 30 -10 70 -10 40 0 70 4 70 10 0 6 9 10 20 10 22 0 70 41 70 60 0 5 4 10 8
10 11 0 42 66 42 90 0 13 7 20 19 20 11 0 23 5 26 10 3 6 24 10 46 10 21 0 39
5 39 10 0 6 25 10 55 10 30 0 55 5 55 10 0 6 15 10 34 10 19 0 72 10 118 21
46 12 109 24 141 26 31 3 57 9 57 14 0 5 25 9 55 9 30 0 55 5 55 10 0 6 28 10
65 10 36 0 65 4 65 9 0 4 30 11 68 15 37 4 86 9 110 12 27 4 42 2 42 -5 0 -6
-4 -11 -10 -11 -5 0 -10 -9 -10 -20 0 -11 -4 -20 -9 -20 -13 0 -31 -57 -31
-100 0 -43 18 -100 31 -100 5 0 9 -8 9 -18 0 -10 10 -24 21 -32 12 -8 27 -21
35 -27 7 -7 19 -13 28 -13 8 0 18 -4 21 -10 3 -5 28 -10 55 -10 84 0 190 70
190 125 0 14 5 25 10 25 6 0 10 27 10 60 0 33 -4 60 -10 60 -5 0 -10 7 -10 15
0 9 -6 23 -12 31 -32 38 -60 64 -68 64 -16 0 -11 27 6 34 9 3 54 6 100 6 49 0
84 4 84 10 0 6 42 10 106 10 58 0 113 4 122 9 14 8 90 13 295 23 28 1 67 -30
67 -53 0 -17 37 -46 91 -71 53 -25 56 -30 34 -52 -8 -8 -15 -22 -15 -31 0 -9
-5 -21 -10 -28 -21 -25 -60 -88 -60 -97 0 -6 -4 -10 -10 -10 -5 0 -10 -13 -10
-30 0 -27 3 -30 29 -30 21 0 32 6 36 20 3 11 11 20 16 20 5 0 9 9 9 20 0 31
17 24 24 -10 9 -48 66 -31 66 19 0 12 5 21 10 21 6 0 10 -9 10 -20 0 -11 5
-20 10 -20 6 0 10 -5 10 -11 0 -17 27 -39 49 -39 37 0 22 67 -26 118 -7 7 -16
24 -19 38 -3 13 -10 24 -15 24 -5 0 -9 9 -9 20 0 11 -4 20 -10 20 -5 0 -10 9
-10 20 0 13 7 20 20 20 11 0 20 5 20 10 0 6 8 10 18 10 20 0 92 73 92 93 0 7
9 23 20 35 17 17 32 22 78 22 31 0 303 1 604 2 l548 3 0 -32 c0 -18 -4 -33
-10 -33 -5 0 -10 -25 -10 -55 0 -30 5 -55 10 -55 6 0 10 -11 10 -25 0 -14 3
-25 8 -25 4 0 16 -14 27 -30 11 -16 26 -30 33 -30 6 0 12 -4 12 -10 0 -5 7
-10 15 -10 8 0 15 -4 15 -10 0 -6 32 -10 75 -10 43 0 75 4 75 10 0 6 9 10 20
10 19 0 70 41 70 55 0 4 9 18 19 31 30 38 36 96 15 154 -10 27 -16 52 -13 55
3 2 421 5 929 6 670 1 925 -2 928 -10 2 -6 10 -18 18 -25 8 -8 14 -20 14 -26
0 -34 105 -90 170 -90 28 0 50 4 50 9 0 5 12 11 28 14 35 7 102 69 102 95 0
11 6 22 14 25 8 3 196 6 418 7 222 1 412 4 423 6 19 5 24 35 17 92 -2 9 -92
12 -414 12 -227 0 -423 3 -435 6 -14 4 -23 14 -23 25 0 11 -4 19 -10 19 -5 0
-10 8 -10 18 0 11 -14 27 -35 38 -19 10 -35 22 -35 26 0 5 -13 8 -30 8 -16 0
-30 5 -30 10 0 6 -16 10 -35 10 -19 0 -35 -4 -35 -10 0 -5 -13 -10 -28 -10
-29 0 -102 -57 -102 -79 0 -6 -4 -11 -10 -11 -5 0 -10 -8 -10 -19 0 -14 -10
-20 -39 -25 -31 -5 -3123 -13 -3365 -9 -55 1 -72 5 -87 22 -10 11 -19 25 -19
31 0 6 -6 17 -12 23 -17 16 -85 47 -103 47 -8 0 -15 5 -15 10 0 6 -16 10 -35
10 -19 0 -35 -4 -35 -10 0 -5 -11 -10 -24 -10 -13 0 -29 -7 -36 -15 -7 -8 -19
-15 -27 -15 -7 0 -17 -8 -20 -17 -4 -10 -14 -25 -24 -33 -9 -8 -18 -24 -20
-35 -6 -27 -84 -43 -221 -44 -65 -1 -108 -5 -108 -11 0 -6 -47 -10 -120 -10
-67 0 -120 -4 -120 -9 0 -5 -42 -12 -92 -15 -105 -5 -207 -17 -353 -41 -55
-10 -130 -19 -167 -22 -38 -2 -68 -9 -68 -14 0 -5 -25 -9 -55 -9 -30 0 -55 -4
-55 -10 0 -6 -28 -10 -65 -10 -36 0 -65 -4 -65 -9 0 -5 -26 -11 -57 -14 -32
-3 -87 -12 -123 -22 -36 -9 -84 -19 -107 -22 -24 -3 -43 -9 -43 -14 0 -5 -25
-9 -55 -9 -30 0 -55 -4 -55 -10 0 -5 -20 -10 -45 -10 -25 0 -45 -4 -45 -10 0
-5 -18 -10 -40 -10 -22 0 -40 4 -40 8 0 28 -80 82 -120 82 -11 0 -20 5 -20 10
0 6 -13 10 -29 10 -17 0 -33 -4 -36 -10 -3 -5 -15 -10 -25 -10 -10 0 -25 -7
-34 -15 -8 -8 -22 -15 -30 -15 -9 0 -16 -4 -16 -8 0 -5 -11 -21 -23 -36 -13
-15 -30 -49 -37 -77 -10 -36 -18 -49 -32 -49 -10 0 -26 -4 -36 -9 -26 -14
-122 -41 -143 -41 -11 0 -19 -4 -19 -10 0 -5 -13 -10 -30 -10 -16 0 -30 -4
-30 -10 0 -5 -16 -10 -35 -10 -19 0 -35 -4 -35 -10 0 -5 -14 -10 -30 -10 -17
0 -38 -4 -48 -9 -28 -14 -85 -33 -114 -38 -16 -3 -28 -9 -28 -14 0 -5 -13 -9
-30 -9 -16 0 -30 -4 -30 -10 0 -5 -16 -10 -35 -10 -19 0 -35 -4 -35 -10 0 -5
-7 -10 -15 -10 -8 0 -23 -4 -33 -9 -9 -5 -37 -17 -62 -26 -25 -9 -53 -21 -62
-26 -10 -5 -25 -9 -33 -9 -8 0 -15 -4 -15 -10 0 -5 -13 -10 -30 -10 -16 0 -30
-4 -30 -10 0 -5 -11 -10 -24 -10 -13 0 -26 -3 -28 -7 -3 -7 -59 -31 -135 -57
-18 -6 -33 -14 -33 -18 0 -5 -11 -8 -25 -8 -14 0 -25 -4 -25 -10 0 -5 -11 -10
-25 -10 -14 0 -25 -4 -25 -10 0 -5 -7 -10 -15 -10 -8 0 -38 -11 -67 -25 -28
-14 -58 -25 -65 -25 -7 0 -13 -4 -13 -10 0 -5 -11 -10 -25 -10 -14 0 -25 -4
-25 -10 0 -5 -9 -10 -19 -10 -11 0 -21 -3 -23 -7 -4 -10 -110 -63 -126 -63 -6
0 -12 -4 -12 -10 0 -5 -9 -10 -20 -10 -11 0 -20 -4 -20 -10 0 -5 -9 -10 -19
-10 -11 0 -23 -4 -26 -10 -3 -5 -15 -10 -26 -10 -10 0 -19 -4 -19 -9 0 -5 -20
-17 -45 -28 -25 -10 -45 -21 -45 -25 0 -5 -9 -8 -20 -8 -11 0 -20 -4 -20 -10
0 -5 -9 -10 -20 -10 -11 0 -20 -3 -20 -8 0 -4 -15 -14 -32 -21 -18 -8 -39 -21
-46 -28 -7 -7 -20 -13 -28 -13 -8 0 -14 -4 -14 -10 0 -5 -9 -10 -20 -10 -11 0
-20 -4 -20 -10 0 -5 -9 -10 -20 -10 -11 0 -20 -4 -20 -8 0 -5 -25 -22 -55 -37
-30 -16 -55 -33 -55 -37 0 -4 -9 -8 -20 -8 -11 0 -20 -4 -20 -10 0 -5 -7 -10
-15 -10 -8 0 -15 -4 -15 -9 0 -5 -8 -12 -19 -16 -16 -5 -31 -16 -78 -55 -7 -5
-17 -10 -23 -10 -5 0 -10 -4 -10 -10 0 -5 -9 -10 -20 -10 -11 0 -20 -4 -20
-10 0 -27 -20 -4 -40 45 -25 63 -50 95 -74 95 -9 0 -16 4 -16 8 0 12 -62 32
-102 32 -41 0 -98 -18 -98 -31 0 -5 -6 -9 -12 -9 -20 0 -78 -72 -78 -97 0 -13
-4 -23 -10 -23 -5 0 -10 -18 -10 -40 0 -22 5 -40 10 -40 6 0 10 -13 10 -30 0
-21 12 -42 43 -73 23 -25 49 -46 57 -49 13 -4 13 -7 -2 -21 -9 -9 -20 -17 -25
-17 -5 0 -26 -16 -46 -35 -20 -19 -43 -35 -50 -35 -7 0 -19 -9 -27 -20 -8 -11
-18 -20 -23 -20 -4 0 -19 -10 -32 -22 -62 -57 -75 -68 -80 -68 -3 0 -21 -15
-40 -32 -64 -61 -84 -78 -91 -78 -7 0 -51 -46 -79 -83 -11 -15 -25 -27 -32
-27 -7 0 -13 -4 -13 -10 0 -5 -20 -10 -45 -10 -25 0 -45 -4 -45 -10 0 -5 -11
-10 -25 -10 -27 0 -42 -9 -78 -49 -12 -13 -28 -29 -34 -37 -7 -7 -13 -22 -13
-33 0 -12 -4 -21 -10 -21 -5 0 -10 -22 -10 -50 0 -51 -7 -64 -67 -126 -13 -13
-23 -26 -23 -29 0 -3 -15 -21 -32 -39 -48 -50 -78 -89 -78 -103 0 -7 -4 -13
-10 -13 -5 0 -10 -5 -10 -10 0 -6 -13 -24 -30 -42 -16 -17 -30 -35 -30 -39 0
-4 -11 -19 -25 -33 -14 -14 -25 -32 -25 -41 0 -8 -4 -15 -10 -15 -5 0 -10 -7
-10 -15 0 -8 -4 -15 -9 -15 -5 0 -14 -13 -21 -30 -7 -16 -15 -30 -19 -30 -4 0
-15 -16 -25 -35 -11 -19 -23 -35 -28 -35 -4 0 -8 -9 -8 -20 0 -11 -4 -20 -10
-20 -5 0 -10 -9 -10 -20 0 -11 -4 -20 -9 -20 -5 0 -12 -11 -15 -25 -4 -14 -11
-25 -16 -25 -6 0 -10 -9 -10 -20 0 -11 -4 -20 -10 -20 -5 0 -10 -7 -10 -15 0
-8 -4 -15 -10 -15 -5 0 -10 -9 -10 -20 0 -11 -4 -20 -10 -20 -5 0 -10 -7 -10
-15 0 -8 -11 -34 -25 -59 -14 -25 -25 -52 -25 -60 0 -9 -4 -16 -10 -16 -5 0
-10 -9 -10 -20 0 -11 -4 -20 -10 -20 -5 0 -10 -11 -10 -25 0 -14 -4 -25 -10
-25 -5 0 -10 -13 -10 -30 0 -16 -4 -30 -10 -30 -5 0 -10 -11 -10 -25 0 -14 -4
-25 -10 -25 -5 0 -10 -8 -10 -17 0 -10 -7 -31 -15 -47 -8 -15 -15 -37 -15 -47
0 -10 -4 -21 -10 -24 -5 -3 -10 -22 -10 -41 0 -19 -4 -34 -10 -34 -7 0 -11
1032 -12 3062 l-3 3062 -52 2 -53 1 0 -4473z"/>
<path d="M4540 10679 l0 -290 33 3 32 3 3 121 c3 121 3 121 30 133 18 9 28 9
30 2 5 -14 32 -14 32 -1 0 6 7 10 15 10 8 0 15 -4 15 -10 0 -5 9 -10 21 -10
19 0 49 -21 49 -35 0 -3 10 -17 23 -30 37 -40 47 -54 47 -65 0 -5 5 -10 10
-10 6 0 10 -8 10 -18 0 -10 9 -24 20 -32 11 -8 20 -22 20 -31 0 -26 69 -39
100 -19 12 7 11 12 -8 28 -12 11 -22 27 -22 36 0 9 -4 16 -10 16 -5 0 -10 5
-10 11 0 6 -6 16 -12 24 -7 7 -22 25 -33 41 -11 15 -35 43 -52 61 -38 38 -40
43 -13 43 11 0 20 5 20 10 0 6 9 10 20 10 11 0 20 5 20 10 0 6 6 10 13 10 8 0
20 11 27 25 7 14 16 25 19 25 3 0 7 25 9 55 2 34 -1 55 -8 55 -5 0 -10 7 -10
15 0 17 -39 65 -53 65 -4 0 -15 7 -23 15 -13 12 -48 15 -190 15 l-174 0 0
-291z m345 196 c37 -36 34 -88 -6 -126 -28 -26 -38 -29 -98 -30 -36 0 -84 -2
-106 -4 -22 -3 -45 -1 -51 3 -7 4 -13 44 -15 95 l-4 87 128 0 c122 0 129 -1
152 -25z"/>
<path d="M5190 10800 c0 -5 -7 -10 -16 -10 -18 0 -44 -23 -44 -39 0 -6 -4 -11
-10 -11 -5 0 -10 -13 -10 -30 0 -27 3 -30 30 -30 23 0 32 7 46 35 13 28 22 35
45 35 16 0 29 5 29 10 0 6 11 10 25 10 14 0 25 -4 25 -9 0 -5 14 -11 30 -14
24 -5 30 -12 30 -31 0 -14 5 -28 10 -31 17 -10 11 -25 -10 -25 -11 0 -20 -4
-20 -9 0 -5 -26 -11 -57 -14 -32 -2 -75 -9 -95 -14 -40 -12 -88 -53 -88 -78 0
-8 -4 -15 -10 -15 -5 0 -10 -16 -10 -35 0 -19 5 -35 10 -35 6 0 10 -8 10 -19
0 -20 46 -47 97 -57 33 -7 136 21 157 42 19 19 26 18 26 -5 0 -17 25 -31 58
-31 9 0 12 39 12 164 0 91 -4 167 -9 170 -4 3 -11 19 -14 36 -5 21 -12 30 -27
30 -11 0 -20 5 -20 10 0 6 -40 10 -100 10 -60 0 -100 -4 -100 -10z m182 -222
c7 -20 -3 -88 -13 -88 -5 0 -9 -7 -9 -15 0 -8 -9 -15 -20 -15 -11 0 -20 -4
-20 -10 0 -18 -98 -12 -120 7 -25 22 -26 63 -1 91 14 17 30 22 64 22 25 0 49
5 52 10 9 14 62 12 67 -2z"/>
<path d="M5550 10605 l0 -205 24 -6 c14 -3 30 -3 35 1 7 4 11 51 11 118 1 197
20 237 112 237 53 0 78 -15 78 -48 0 -11 6 -22 13 -25 9 -3 9 -11 1 -38 -6
-19 -10 -54 -8 -79 2 -25 4 -71 5 -102 2 -61 12 -73 55 -62 l24 6 0 154 c0 96
-4 154 -10 154 -5 0 -10 7 -10 15 0 28 -23 65 -41 65 -10 0 -21 5 -24 10 -3 6
-35 10 -71 10 -36 0 -64 -4 -64 -10 0 -5 -9 -10 -20 -10 -11 0 -20 -4 -20 -10
0 -5 -7 -10 -15 -10 -8 0 -15 9 -15 20 0 16 -7 20 -30 20 l-30 0 0 -205z"/>
<path d="M6090 10800 c0 -5 -7 -10 -16 -10 -18 0 -44 -23 -44 -39 0 -6 -4 -11
-10 -11 -5 0 -10 -11 -10 -24 0 -14 -4 -28 -10 -31 -5 -3 -10 -39 -10 -80 0
-41 5 -77 10 -80 6 -3 10 -15 10 -26 0 -10 5 -19 10 -19 6 0 10 -9 10 -20 0
-12 7 -20 18 -20 9 0 23 -9 30 -20 10 -17 23 -20 81 -20 39 0 73 5 76 10 8 13
55 13 55 1 0 -6 -4 -13 -10 -16 -5 -3 -10 -22 -10 -42 0 -49 -21 -62 -100 -62
-68 0 -100 13 -100 43 0 11 -9 16 -30 16 -27 0 -30 -3 -30 -30 0 -16 5 -30 10
-30 6 0 10 -5 10 -11 0 -16 26 -39 44 -39 9 0 16 -4 16 -10 0 -15 148 -13 167
3 49 39 83 78 83 95 0 12 5 24 10 27 6 4 10 92 10 231 l0 224 -35 0 c-28 0
-35 -4 -35 -20 0 -11 -4 -20 -10 -20 -5 0 -10 4 -10 8 0 5 -11 14 -25 20 -32
15 -155 16 -155 2z m95 -40 c3 -5 14 -10 23 -10 28 -1 62 -36 62 -64 0 -14 5
-26 10 -26 6 0 10 -25 10 -55 0 -30 -4 -55 -10 -55 -5 0 -10 -13 -10 -29 0
-21 -6 -32 -20 -36 -11 -3 -20 -11 -20 -16 0 -5 -11 -9 -25 -9 -14 0 -25 -6
-26 -12 0 -10 -2 -10 -6 0 -2 6 -15 12 -27 12 -50 0 -113 120 -87 168 6 11 11
30 11 42 0 28 34 71 68 86 35 16 40 16 47 4z"/>
<path d="M6560 10800 c0 -5 -5 -10 -10 -10 -14 0 -60 -46 -60 -60 0 -5 -4 -10
-10 -10 -5 0 -10 -9 -10 -20 0 -11 -5 -20 -11 -20 -7 0 -9 -23 -6 -67 6 -84
17 -133 28 -133 5 0 9 -7 9 -16 0 -20 24 -44 44 -44 9 0 16 -4 16 -9 0 -5 24
-15 54 -22 44 -9 63 -9 100 2 25 7 46 17 46 21 0 4 5 8 10 8 23 0 60 50 60 80
0 27 -3 30 -31 30 -22 0 -32 -5 -36 -20 -3 -11 -9 -20 -14 -20 -5 0 -9 -7 -9
-15 0 -8 -9 -15 -20 -15 -11 0 -20 -4 -20 -10 0 -5 -19 -10 -41 -10 -35 0 -48
6 -75 34 -38 39 -53 81 -35 99 8 8 58 13 144 14 73 1 138 2 145 2 14 1 17 51
2 51 -5 0 -10 18 -10 40 0 22 -4 40 -9 40 -5 0 -12 11 -15 25 -4 15 -14 25
-24 25 -10 0 -24 9 -32 20 -12 17 -26 20 -97 20 -49 0 -83 -4 -83 -10z m100
-40 c0 -5 9 -10 20 -10 31 0 70 -44 70 -80 l0 -30 -104 0 c-87 0 -105 3 -110
16 -10 27 39 94 68 94 9 0 16 5 16 10 0 6 9 10 20 10 11 0 20 -4 20 -10z"/>
<path d="M1695 10457 c-11 -12 -32 -41 -48 -65 -15 -23 -32 -42 -37 -42 -6 0
-10 -9 -10 -20 0 -11 -4 -20 -9 -20 -5 0 -16 -16 -25 -35 -9 -19 -21 -35 -26
-35 -5 0 -12 -9 -15 -20 -4 -11 -17 -32 -31 -45 -13 -13 -24 -28 -24 -34 0 -5
-4 -11 -8 -13 -15 -5 -22 -77 -9 -85 7 -5 62 -8 122 -8 l110 0 3 -72 c3 -73 3
-73 31 -73 34 0 41 14 41 77 0 53 19 78 55 69 23 -6 25 -4 25 34 0 33 -3 40
-19 40 -11 0 -21 -6 -23 -12 -3 -9 -9 -8 -21 4 -14 13 -17 45 -19 195 -3 170
-4 178 -23 180 -11 1 -29 -8 -40 -20z m-5 -234 c0 -56 -3 -108 -6 -117 -5 -12
-21 -16 -65 -16 -33 0 -59 4 -59 10 0 6 -7 10 -15 10 -8 0 -15 3 -15 6 0 12
34 64 42 64 4 0 8 8 8 18 0 10 9 24 20 32 11 8 20 19 20 25 0 6 11 22 25 37
14 15 25 35 25 45 0 15 2 16 10 3 5 -8 10 -61 10 -117z"/>
<path d="M5736 10061 c-9 -28 -16 -61 -16 -75 0 -14 -4 -28 -10 -31 -5 -3 -10
-17 -10 -30 0 -21 -52 -89 -98 -129 -7 -6 -24 -21 -37 -33 -13 -13 -28 -23
-34 -23 -5 0 -11 -4 -13 -9 -5 -13 -105 -61 -128 -61 -11 0 -20 -4 -20 -10 0
-6 -28 -10 -65 -10 -37 0 -65 -4 -65 -10 0 -7 -423 -10 -1250 -10 -827 0
-1250 -3 -1250 -10 0 -5 -12 -10 -27 -10 -30 0 -103 -30 -103 -42 0 -4 -11 -8
-25 -8 -14 0 -25 -4 -25 -10 0 -5 -7 -10 -15 -10 -9 0 -27 -11 -41 -25 -14
-14 -28 -25 -32 -25 -15 0 -102 -89 -102 -105 0 -8 -4 -15 -10 -15 -5 0 -10
-7 -10 -15 0 -8 -4 -15 -9 -15 -9 0 -41 -88 -41 -114 0 -9 -4 -16 -10 -16 -15
0 -12 -56 5 -70 8 -6 22 -10 32 -8 16 3 25 25 40 101 3 15 9 27 14 27 5 0 9
11 9 25 0 14 10 37 22 50 13 13 32 36 43 50 11 13 26 25 33 25 6 0 12 9 12 20
0 11 7 20 15 20 9 0 26 9 38 21 12 11 34 23 50 26 15 3 27 9 27 14 0 5 9 9 20
9 11 0 20 5 20 10 0 6 16 10 35 10 19 0 35 4 35 9 0 16 116 18 1365 22 1119 4
1213 5 1255 21 25 10 53 18 63 18 9 0 17 5 17 10 0 6 11 10 25 10 14 0 25 5
25 10 0 6 11 10 25 10 14 0 25 5 25 10 0 6 4 10 10 10 9 0 42 25 76 58 7 6 15
12 19 12 10 0 35 28 35 39 0 6 5 11 10 11 6 0 10 7 10 15 0 8 4 15 8 15 4 0
16 15 27 33 29 50 55 58 55 16 0 -10 3 -19 8 -19 4 0 21 -21 37 -45 17 -25 33
-45 38 -45 4 0 22 -15 40 -33 17 -18 47 -40 65 -48 17 -7 32 -17 32 -21 0 -5
9 -8 20 -8 11 0 20 -4 20 -10 0 -5 7 -10 15 -10 8 0 23 -4 33 -10 9 -5 40 -17
67 -27 46 -15 154 -17 1334 -22 1015 -5 1285 -9 1289 -18 2 -8 21 -13 48 -13
24 0 44 -4 44 -10 0 -5 9 -10 20 -10 11 0 20 -4 20 -10 0 -5 6 -10 13 -10 7 0
24 -11 39 -25 15 -14 32 -25 38 -25 14 0 90 -75 90 -89 0 -6 5 -11 10 -11 6 0
10 -7 10 -15 0 -8 5 -15 10 -15 6 0 10 -9 10 -20 0 -11 5 -20 10 -20 6 0 10
-9 10 -19 0 -11 4 -23 10 -26 5 -3 12 -28 16 -55 6 -47 8 -50 35 -50 28 0 29
2 29 50 0 28 -4 50 -10 50 -5 0 -10 16 -10 35 0 19 -4 35 -10 35 -5 0 -10 9
-10 20 0 11 -4 20 -8 20 -4 0 -16 14 -27 32 -24 41 -128 148 -144 148 -7 0
-21 9 -33 20 -12 11 -27 20 -33 20 -6 0 -35 11 -63 25 -29 14 -65 25 -82 25
-16 0 -30 5 -30 10 0 7 -420 10 -1240 10 -820 0 -1240 3 -1240 10 0 6 -28 10
-65 10 -37 0 -65 4 -65 10 0 6 -11 10 -25 10 -30 0 -95 29 -116 52 -9 10 -24
18 -33 18 -9 0 -16 5 -16 10 0 6 -5 10 -11 10 -12 0 -73 61 -104 104 -11 16
-26 34 -32 41 -7 8 -13 23 -13 34 0 12 -4 21 -10 21 -5 0 -10 25 -10 55 0 30
-4 55 -10 55 -5 0 -10 9 -10 20 0 13 -7 20 -19 20 -14 0 -23 -13 -35 -49z"/>
<path d="M5496 8651 c-4 -6 -18 -11 -32 -11 -13 0 -24 -4 -24 -10 0 -5 -5 -10
-10 -10 -6 0 -22 -11 -35 -25 -14 -13 -25 -29 -25 -35 0 -5 -4 -10 -10 -10 -5
0 -10 -13 -10 -30 0 -16 -4 -30 -10 -30 -5 0 -10 -20 -10 -45 0 -25 5 -45 10
-45 6 0 10 -11 10 -25 0 -14 5 -25 10 -25 6 0 10 -9 10 -20 0 -11 7 -20 15
-20 8 0 15 -4 15 -10 0 -5 7 -10 15 -10 8 0 15 -4 15 -8 0 -14 65 -32 116 -32
49 0 104 17 104 33 0 4 5 7 11 7 14 0 39 25 39 39 0 6 4 11 8 11 13 0 32 71
32 115 0 42 -19 105 -32 105 -4 0 -8 9 -8 19 0 12 -12 25 -30 33 -16 7 -30 16
-30 19 0 4 -15 10 -32 13 -74 16 -106 17 -112 7z"/>
<path d="M12230 8651 c0 -6 -13 -11 -30 -11 -16 0 -30 -4 -30 -10 0 -5 -6 -10
-13 -10 -15 0 -57 -45 -57 -60 0 -6 -4 -10 -10 -10 -5 0 -10 -13 -10 -30 0
-16 -4 -30 -10 -30 -5 0 -10 -20 -10 -45 0 -25 5 -45 10 -45 6 0 10 -11 10
-25 0 -14 3 -25 8 -25 4 0 12 -10 17 -22 6 -13 20 -27 33 -33 12 -5 22 -13 22
-17 0 -5 7 -8 15 -8 8 0 15 -4 15 -10 0 -6 31 -10 74 -10 41 0 78 5 81 10 3 6
13 10 21 10 17 0 64 44 64 60 0 5 3 10 8 10 13 0 34 60 34 103 1 44 -20 117
-34 117 -4 0 -8 7 -8 15 0 8 -4 15 -10 15 -5 0 -10 7 -10 15 0 8 -9 15 -20 15
-11 0 -20 4 -20 9 0 9 -31 17 -102 28 -25 3 -38 1 -38 -6z"/>
<path d="M498 8577 c-21 -12 -38 -27 -38 -32 0 -6 -9 -17 -20 -25 -11 -8 -20
-25 -20 -37 0 -13 -5 -32 -12 -42 -9 -15 -9 -25 0 -46 7 -14 12 -37 12 -50 0
-14 5 -25 10 -25 6 0 10 -5 10 -11 0 -13 25 -39 38 -39 6 0 12 -5 14 -10 5
-17 79 -39 130 -40 49 0 128 25 128 41 0 5 7 9 16 9 20 0 44 24 44 43 0 9 6
17 12 19 17 6 17 170 0 176 -7 2 -12 10 -12 19 0 19 -18 36 -58 57 -38 20 -52
14 -52 -20 0 -23 20 -54 35 -54 12 0 35 -29 35 -44 0 -9 5 -16 10 -16 6 0 10
-11 10 -25 0 -14 -4 -25 -10 -25 -5 0 -10 -9 -10 -20 0 -27 -43 -70 -70 -70
-11 0 -20 -4 -20 -10 0 -5 -9 -10 -20 -10 -19 0 -20 7 -20 155 l0 155 -52 0
c-36 -1 -65 -8 -90 -23z m82 -87 c8 -29 8 -46 -1 -61 -8 -16 -8 -23 1 -29 6
-4 10 -24 8 -46 -2 -32 -7 -40 -27 -42 -33 -5 -69 16 -86 51 -17 34 -20 97 -5
97 6 0 10 5 10 11 0 14 25 39 39 39 6 0 11 5 11 10 0 6 9 10 20 10 14 0 22
-11 30 -40z"/>
<path d="M1620 8500 c0 -5 -13 -10 -30 -10 -16 0 -30 -4 -30 -9 0 -5 -9 -11
-21 -14 -11 -3 -23 -15 -26 -26 -3 -12 -9 -21 -14 -21 -5 0 -9 -11 -9 -25 0
-14 -6 -25 -12 -25 -7 -1 1 -7 17 -14 32 -14 65 -3 65 22 0 7 11 24 25 37 19
19 35 25 70 25 26 0 52 -6 59 -13 32 -32 28 -126 -6 -134 -10 -3 -18 -9 -18
-14 0 -5 -10 -9 -22 -9 -31 -1 -72 -36 -64 -55 4 -11 20 -15 56 -15 27 0 50
-4 50 -10 0 -5 6 -10 14 -10 8 0 22 -20 31 -44 20 -53 10 -100 -30 -134 -47
-41 -165 -21 -165 27 0 7 -6 19 -14 27 -8 7 -16 18 -18 23 -1 5 -15 7 -30 4
-21 -4 -28 -11 -28 -29 0 -13 5 -24 10 -24 6 0 10 -8 10 -17 1 -22 23 -53 39
-53 6 0 11 -4 11 -10 0 -5 9 -10 20 -10 11 0 20 -4 20 -10 0 -6 32 -10 75 -10
43 0 75 4 75 10 0 6 7 10 15 10 8 0 15 5 15 10 0 6 9 10 20 10 11 0 20 7 20
15 0 8 5 15 10 15 6 0 10 9 10 20 0 11 5 20 10 20 6 0 10 28 10 65 0 37 -4 65
-10 65 -5 0 -10 8 -10 19 0 11 -12 23 -30 31 -17 7 -33 17 -36 21 -6 11 20 39
35 39 6 0 11 9 11 20 0 11 5 20 10 20 6 0 10 20 10 45 0 25 -4 45 -10 45 -5 0
-10 7 -10 17 0 23 -59 73 -87 73 -13 0 -23 5 -23 10 0 6 -16 10 -35 10 -19 0
-35 -4 -35 -10z"/>
<path d="M9367 8454 c-12 -13 -8 -179 5 -192 19 -19 47 -14 53 11 3 12 5 58 3
102 -3 77 -4 80 -28 83 -14 2 -29 0 -33 -4z"/>
<path d="M9383 8190 c-21 -9 -23 -15 -23 -99 0 -94 6 -105 49 -94 19 5 21 12
21 88 0 81 -6 116 -19 114 -3 0 -16 -4 -28 -9z"/>
<path d="M460 8101 c-22 -22 -40 -47 -40 -55 0 -9 -5 -25 -12 -36 -10 -15 -10
-26 0 -53 7 -18 12 -43 12 -56 0 -27 62 -91 90 -91 11 0 20 -4 20 -10 0 -14
146 -13 187 2 18 7 33 16 33 20 0 4 7 8 16 8 19 0 34 15 54 54 19 36 21 157 3
164 -7 2 -13 11 -13 21 0 9 -10 23 -21 31 -12 8 -27 21 -35 28 -7 6 -26 12
-43 12 -29 0 -31 -3 -31 -35 0 -31 3 -35 25 -35 14 0 25 -4 25 -10 0 -5 9 -10
20 -10 16 0 20 -7 20 -30 0 -16 5 -30 10 -30 6 0 10 -11 10 -25 0 -14 -4 -25
-10 -25 -5 0 -10 -8 -10 -18 0 -19 -23 -34 -90 -59 -67 -25 -185 11 -209 64
-14 30 -14 83 -1 83 6 0 10 9 10 20 0 11 7 20 15 20 8 0 15 5 15 10 0 6 9 10
20 10 24 0 27 34 6 56 -22 21 -33 18 -76 -25z"/>
<path d="M9383 7930 c-21 -9 -23 -16 -23 -95 0 -88 10 -115 43 -115 22 0 27
22 27 110 0 77 -6 111 -19 109 -3 0 -16 -4 -28 -9z"/>
<path d="M514 7680 c-25 -4 -50 -16 -65 -30 -39 -40 -63 -130 -39 -145 6 -3
10 -16 10 -27 0 -11 9 -29 21 -38 l20 -18 -20 -7 c-15 -4 -21 -15 -21 -36 l0
-29 205 0 205 0 0 30 0 30 -122 0 c-78 0 -138 5 -163 14 -58 20 -108 101 -75
121 6 3 10 13 10 21 0 39 23 44 189 44 l161 0 0 35 c0 19 -3 35 -7 35 -98 4
-278 4 -309 0z"/>
<path d="M9383 7663 c-22 -4 -23 -9 -23 -92 0 -99 11 -122 50 -101 19 10 21
18 18 102 -3 93 -6 98 -45 91z"/>
<path d="M9366 7394 c-3 -9 -6 -53 -6 -100 0 -80 1 -84 24 -90 40 -10 46 2 46
91 0 99 -5 115 -35 115 -13 0 -26 -7 -29 -16z"/>
<path d="M550 7250 c0 -5 -18 -10 -41 -10 -39 0 -69 -17 -69 -39 0 -6 -4 -11
-8 -11 -14 0 -35 -89 -27 -118 3 -15 9 -44 12 -64 3 -21 9 -38 14 -38 5 0 9
-9 9 -20 0 -11 7 -20 15 -20 8 0 15 -4 15 -9 0 -10 49 -21 54 -12 2 3 6 18 10
32 5 23 2 28 -18 33 -14 3 -28 15 -31 26 -3 11 -11 20 -16 20 -5 0 -9 25 -9
55 0 30 4 55 9 55 5 0 13 9 16 20 5 16 15 20 46 20 37 0 39 -2 39 -29 0 -17 5
-33 10 -36 6 -3 10 -26 10 -49 0 -52 22 -109 55 -142 18 -18 35 -24 69 -24 60
0 89 14 106 53 25 54 9 207 -21 207 -5 0 -9 9 -9 20 0 13 7 20 20 20 16 0 20
7 20 36 l0 37 -47 -7 c-126 -16 -180 -18 -187 -7 -9 14 -46 15 -46 1z m170
-90 c0 -5 5 -10 11 -10 16 0 39 -26 39 -44 0 -9 5 -16 10 -16 6 0 10 -18 10
-40 0 -42 -16 -68 -56 -88 -29 -15 -74 24 -74 66 0 17 -4 32 -9 34 -4 2 -10
27 -13 56 l-5 52 43 0 c24 0 44 -4 44 -10z"/>
<path d="M9400 7140 c0 -5 -9 -10 -20 -10 -19 0 -20 -7 -20 -89 0 -94 6 -105
49 -94 19 5 21 12 21 88 0 46 -3 90 -6 99 -7 18 -24 22 -24 6z"/>
<path d="M9367 6874 c-12 -13 -8 -179 5 -192 19 -19 47 -14 53 11 3 12 5 58 3
102 -3 77 -4 80 -28 83 -14 2 -29 0 -33 -4z"/>
<path d="M260 6765 c0 -33 2 -35 35 -35 33 0 35 2 35 35 0 33 -2 35 -35 35
-33 0 -35 -2 -35 -35z"/>
<path d="M420 6765 l0 -35 205 0 205 0 0 35 0 35 -205 0 -205 0 0 -35z"/>
<path d="M420 6651 c0 -11 -4 -23 -10 -26 -5 -3 -10 -15 -10 -26 0 -10 5 -19
10 -19 6 0 10 -8 10 -18 0 -11 10 -23 23 -29 l22 -10 -22 -7 c-17 -5 -23 -15
-23 -37 l0 -29 205 0 205 0 0 36 0 36 -117 -3 c-120 -2 -193 10 -220 36 -7 7
-13 34 -13 58 0 32 -5 47 -16 51 -29 11 -44 6 -44 -13z"/>
<path d="M14705 6643 c-27 -14 -51 -30 -53 -34 -2 -5 -8 -9 -14 -9 -15 0 -38
-27 -38 -44 0 -9 -4 -16 -10 -16 -5 0 -10 -11 -10 -24 0 -13 -5 -26 -11 -28
-8 -3 -12 -42 -12 -118 0 -76 4 -115 12 -118 6 -2 11 -13 11 -24 0 -10 6 -25
13 -32 6 -7 23 -27 37 -44 14 -18 33 -32 43 -32 9 0 17 -4 17 -10 0 -5 9 -10
19 -10 11 0 21 -5 23 -12 7 -21 115 -22 179 -2 32 11 59 22 59 26 0 5 5 8 10
8 19 0 80 69 80 90 0 11 4 20 8 20 12 0 32 93 32 147 0 47 -17 121 -32 138 -4
5 -8 15 -8 22 0 15 -64 83 -78 83 -5 0 -15 7 -22 15 -7 8 -21 15 -31 15 -11 0
-19 5 -19 10 0 6 -32 10 -77 10 -64 -1 -87 -6 -128 -27z m185 -53 c0 -5 7 -10
15 -10 22 0 71 -47 85 -81 7 -16 16 -29 21 -29 5 0 9 -38 9 -85 0 -72 -4 -93
-27 -140 -15 -30 -35 -58 -45 -61 -10 -3 -18 -10 -18 -15 0 -5 -9 -9 -20 -9
-11 0 -20 -4 -20 -10 0 -6 -30 -10 -70 -10 -40 0 -70 4 -70 10 0 6 -6 10 -13
10 -14 0 -39 21 -69 58 -18 23 -48 124 -48 164 0 13 9 48 20 78 12 30 23 63
27 72 3 10 14 20 24 23 10 4 19 11 19 16 0 5 11 9 25 9 14 0 25 5 25 10 0 6
28 10 65 10 37 0 65 -4 65 -10z"/>
<path d="M15201 6651 c-11 -20 -15 -528 -5 -555 4 -10 18 -16 35 -16 22 0 29
5 29 20 0 25 5 25 39 1 121 -87 278 48 258 221 -10 80 -63 168 -101 168 -8 0
-18 5 -21 10 -3 6 -21 10 -40 10 -19 0 -37 -4 -40 -10 -3 -5 -17 -10 -31 -10
-13 0 -24 -4 -24 -10 0 -5 -9 -10 -20 -10 -19 0 -20 7 -20 100 0 100 0 100
-25 100 -14 0 -29 -8 -34 -19z m239 -221 c11 -11 20 -27 20 -35 0 -8 5 -15 10
-15 6 0 10 -37 10 -90 0 -53 -4 -90 -10 -90 -5 0 -10 -6 -10 -13 0 -16 -36
-47 -54 -47 -8 0 -17 -6 -20 -12 -5 -10 -7 -10 -12 0 -3 6 -15 12 -27 12 -28
0 -67 38 -67 67 0 13 -4 23 -10 23 -5 0 -10 25 -10 55 0 30 5 55 10 55 6 0 10
12 10 26 0 14 12 38 28 54 34 37 100 42 132 10z"/>
<path d="M17842 6658 c-8 -8 -12 -45 -12 -100 0 -72 -3 -88 -15 -88 -8 0 -15
5 -15 10 0 6 -11 10 -24 10 -14 0 -28 5 -31 10 -3 6 -25 10 -48 10 -31 0 -47
-5 -57 -20 -8 -11 -19 -20 -24 -20 -14 0 -56 -53 -56 -72 0 -10 -4 -18 -10
-18 -6 0 -10 -35 -10 -85 0 -50 4 -85 10 -85 6 0 10 -11 10 -25 0 -14 4 -25 9
-25 5 0 13 -9 16 -20 3 -11 13 -20 21 -20 8 0 14 -4 14 -10 0 -5 6 -10 14 -10
8 0 16 -6 19 -12 2 -9 24 -13 62 -13 38 0 60 4 63 13 2 6 10 12 18 12 8 0 14
5 14 12 0 6 11 1 24 -11 18 -17 32 -22 50 -17 l26 6 0 276 c0 225 -3 278 -14
290 -18 17 -38 18 -54 2z m-67 -220 c14 -6 25 -17 25 -25 0 -7 4 -13 9 -13 5
0 14 -29 21 -63 22 -119 -19 -197 -105 -197 -52 0 -87 26 -98 73 -4 15 -10 39
-13 53 -7 29 14 134 28 134 4 0 8 5 8 11 0 34 75 50 125 27z"/>
<path d="M9383 6610 c-21 -9 -23 -15 -23 -99 0 -94 6 -105 49 -94 19 5 21 12
21 88 0 81 -6 116 -19 114 -3 0 -16 -4 -28 -9z"/>
<path d="M1630 6550 c-8 -5 -27 -10 -41 -10 -28 0 -79 -38 -79 -58 0 -7 -4
-12 -10 -12 -5 0 -10 -9 -10 -20 0 -11 -4 -20 -10 -20 -5 0 -10 -12 -10 -26 0
-23 3 -25 37 -22 30 2 38 8 46 32 18 53 50 76 107 76 27 0 50 -4 50 -10 0 -5
5 -10 11 -10 38 0 50 -79 22 -138 -16 -34 -75 -102 -88 -102 -16 0 -165 -151
-165 -167 0 -7 -4 -13 -10 -13 -5 0 -10 -18 -10 -40 l0 -40 185 0 185 0 0 26
c0 47 -16 52 -143 50 -133 -3 -140 2 -82 59 19 19 37 35 40 35 10 0 145 139
145 150 0 5 5 10 10 10 6 0 10 9 10 20 0 11 5 20 10 20 6 0 10 20 10 45 0 25
-4 45 -10 45 -5 0 -10 9 -10 20 0 11 -4 20 -10 20 -5 0 -10 8 -10 18 0 19 -23
34 -90 59 -42 15 -60 16 -80 3z"/>
<path d="M13395 6550 c-3 -5 -15 -10 -25 -10 -10 0 -25 -7 -34 -15 -8 -8 -18
-15 -23 -15 -18 0 -73 -72 -73 -95 0 -14 -4 -25 -10 -25 -5 0 -10 -20 -10 -45
0 -25 5 -45 10 -45 6 0 10 -9 10 -20 0 -22 9 -36 47 -73 35 -36 51 -47 68 -47
8 0 15 -4 15 -10 0 -5 24 -10 53 -10 60 0 153 39 164 68 4 9 13 23 20 30 7 7
13 22 13 32 0 10 5 22 11 26 27 16 -12 158 -54 198 -25 23 -67 46 -86 46 -11
0 -23 5 -26 10 -3 6 -19 10 -35 10 -16 0 -32 -4 -35 -10z"/>
<path d="M15740 6501 c0 -6 -9 -11 -20 -11 -11 0 -20 -4 -20 -10 0 -5 -5 -10
-11 -10 -33 0 -53 -71 -35 -126 8 -27 84 -74 117 -74 15 0 31 -4 34 -10 3 -5
17 -10 30 -10 32 0 65 -29 65 -55 -1 -29 -24 -55 -49 -55 -11 0 -21 -4 -21
-10 0 -5 -9 -10 -20 -10 -11 0 -20 5 -20 10 0 6 -9 10 -20 10 -22 0 -70 41
-70 60 0 5 -16 10 -35 10 -40 0 -45 -15 -18 -58 25 -39 40 -52 56 -52 9 0 17
-5 19 -10 4 -13 107 -25 141 -16 32 8 97 68 97 89 0 9 5 17 10 17 6 0 10 11
10 25 0 14 -4 25 -10 25 -5 0 -10 7 -10 16 0 28 -65 74 -105 74 -14 0 -25 5
-25 10 0 6 -16 10 -35 10 -19 0 -35 5 -35 10 0 6 -9 10 -20 10 -11 0 -20 6
-20 14 0 8 -6 17 -12 19 -10 4 -10 6 0 6 6 1 12 6 12 12 0 23 30 39 75 39 41
0 51 -4 79 -36 27 -31 37 -36 59 -30 25 6 39 36 17 36 -5 0 -10 11 -10 25 0
16 -6 25 -15 25 -8 0 -15 4 -15 9 0 9 -40 18 -122 27 -32 4 -48 2 -48 -5z"/>
<path d="M16180 6500 c0 -5 -11 -10 -25 -10 -14 0 -25 -4 -25 -10 0 -5 -7 -10
-16 -10 -20 0 -44 -24 -44 -44 0 -9 -4 -16 -8 -16 -25 0 -46 -180 -22 -195 6
-3 10 -17 10 -31 0 -13 5 -24 10 -24 6 0 10 -9 10 -20 0 -13 7 -20 20 -20 11
0 20 -4 20 -10 0 -5 6 -10 14 -10 8 0 16 -6 19 -12 5 -17 159 -16 165 1 2 6
11 11 21 11 9 0 23 9 31 20 8 11 20 20 27 20 8 0 13 13 13 35 0 33 -2 35 -35
35 -19 0 -35 -5 -35 -10 0 -17 -47 -60 -65 -60 -8 0 -15 -4 -15 -10 0 -5 -7
-10 -15 -10 -8 0 -15 5 -15 10 0 6 -12 10 -26 10 -14 0 -31 6 -38 13 -28 29
-46 63 -46 89 l0 28 155 0 155 0 0 35 c0 19 -4 35 -10 35 -5 0 -10 14 -10 30
0 17 -4 30 -10 30 -5 0 -10 8 -10 18 0 18 -33 52 -50 52 -6 0 -10 5 -10 10 0
6 -11 10 -24 10 -14 0 -28 5 -31 10 -3 6 -24 10 -46 10 -21 0 -39 -4 -39 -10z
m96 -62 c39 -33 54 -54 54 -75 0 -23 -2 -23 -110 -23 -101 0 -110 2 -110 19 0
10 7 24 15 31 8 7 15 19 15 26 0 8 9 14 20 14 11 0 20 5 20 10 0 14 78 12 96
-2z"/>
<path d="M16503 6503 c-10 -3 -13 -56 -13 -214 l0 -209 30 0 c36 0 38 4 43
166 5 160 18 184 94 184 46 0 53 3 53 20 0 11 5 20 10 20 6 0 10 -9 10 -20 0
-11 5 -20 10 -20 6 0 10 -16 10 -35 0 -19 5 -35 10 -35 6 0 10 -7 10 -15 0 -8
4 -23 9 -33 5 -9 17 -37 26 -62 9 -25 21 -53 26 -62 5 -10 9 -25 9 -33 0 -8 5
-15 10 -15 6 0 10 -13 10 -30 0 -28 2 -30 40 -30 37 0 41 3 47 30 3 17 9 30
14 30 5 0 9 11 9 25 0 14 5 25 10 25 6 0 10 14 10 30 0 17 5 30 10 30 6 0 10
8 10 18 0 10 11 42 25 70 14 29 25 61 25 72 0 11 5 20 10 20 6 0 10 18 10 40
0 33 -3 40 -20 40 -11 0 -20 -4 -20 -10 0 -5 -7 -10 -15 -10 -8 0 -15 -9 -15
-19 0 -11 -4 -23 -10 -26 -5 -3 -10 -19 -10 -36 0 -16 -4 -29 -10 -29 -5 0
-10 -13 -10 -30 0 -16 -4 -30 -10 -30 -5 0 -10 -11 -10 -25 0 -14 -4 -25 -10
-25 -5 0 -10 -8 -10 -18 0 -23 -29 -64 -41 -57 -5 4 -9 17 -9 31 0 13 -4 24
-10 24 -5 0 -10 16 -10 35 0 19 -4 35 -10 35 -5 0 -10 14 -10 30 0 17 -4 30
-10 30 -5 0 -10 10 -10 23 0 35 -43 102 -68 105 -12 2 -22 -1 -22 -7 0 -14
-37 -14 -45 -1 -3 6 -19 10 -36 10 -16 0 -29 -4 -29 -10 0 -5 -8 -10 -18 -10
-11 0 -24 -10 -30 -22 -10 -22 -11 -22 -17 10 -7 31 -21 38 -52 25z"/>
<path d="M17266 6501 c-4 -6 -18 -11 -32 -11 -13 0 -24 -4 -24 -10 0 -5 -7
-10 -16 -10 -24 0 -74 -63 -74 -95 0 -8 -5 -15 -11 -15 -12 0 -7 -87 8 -151 8
-38 41 -89 57 -89 5 0 17 -10 28 -22 16 -19 29 -22 93 -23 46 0 79 5 86 13 7
6 19 12 26 12 23 0 62 46 65 77 3 25 0 28 -29 31 -18 2 -33 0 -33 -5 0 -4 -11
-20 -24 -35 -21 -25 -30 -28 -85 -28 -60 0 -91 13 -91 38 0 6 -4 12 -8 14 -5
2 -12 20 -15 41 l-6 37 155 0 c146 0 154 1 154 20 0 36 -22 120 -31 120 -5 0
-9 7 -9 16 0 20 -24 44 -44 44 -9 0 -16 4 -16 9 0 5 -13 11 -30 15 -16 3 -43
9 -59 12 -16 3 -32 1 -35 -5z m109 -86 c19 -20 35 -45 35 -55 0 -19 -7 -20
-110 -20 l-110 0 0 25 c0 27 27 65 47 65 7 0 13 5 13 10 0 6 20 10 45 10 37 0
50 -5 80 -35z"/>
<path d="M550 6350 c0 -5 -18 -10 -41 -10 -39 0 -69 -17 -69 -39 0 -6 -4 -11
-9 -11 -16 0 -34 -115 -22 -138 6 -11 11 -34 11 -51 0 -17 5 -31 10 -31 6 0
10 -9 10 -20 0 -11 7 -20 15 -20 8 0 15 -4 15 -10 0 -17 57 -12 64 6 10 26 7
44 -7 44 -8 0 -26 13 -40 30 -22 24 -27 40 -27 80 0 27 4 50 9 50 5 0 13 9 16
20 5 16 15 20 46 20 37 0 39 -2 39 -30 0 -16 5 -30 10 -30 6 0 10 -24 10 -53
0 -58 19 -107 56 -144 26 -26 94 -31 138 -12 37 17 60 85 52 149 -7 55 -24
100 -38 100 -4 0 -8 9 -8 20 0 13 7 20 20 20 16 0 20 7 20 35 0 35 0 35 -45
35 -25 0 -45 -4 -45 -10 0 -14 -37 -12 -43 3 -4 9 -8 8 -17 -3 -9 -11 -13 -12
-17 -2 -2 6 -20 12 -38 12 -18 0 -36 -6 -39 -12 -5 -10 -7 -10 -12 0 -7 14
-24 16 -24 2z m170 -90 c0 -5 5 -10 11 -10 16 0 39 -26 39 -44 0 -9 5 -16 10
-16 20 0 11 -79 -12 -105 -24 -28 -44 -31 -83 -13 -20 9 -25 18 -25 48 0 20
-4 40 -9 46 -5 5 -11 30 -14 57 l-5 47 44 0 c24 0 44 -4 44 -10z"/>
<path d="M9366 6344 c-3 -9 -6 -53 -6 -100 0 -80 1 -84 24 -90 40 -10 46 2 46
91 0 99 -5 115 -35 115 -13 0 -26 -7 -29 -16z"/>
<path d="M9383 6083 c-22 -4 -23 -9 -23 -92 0 -100 12 -123 50 -99 19 12 20
21 18 102 -3 91 -6 96 -45 89z"/>
<path d="M9960 6040 c0 -5 -11 -10 -25 -10 -14 0 -25 -4 -25 -10 0 -5 -8 -10
-18 -10 -17 0 -44 -41 -57 -87 -15 -54 36 -153 79 -153 9 0 16 -4 16 -10 0 -5
10 -10 23 -10 12 -1 33 -7 47 -15 14 -8 39 -14 57 -15 17 0 35 -4 38 -10 3 -5
15 -10 26 -10 28 0 69 -44 69 -74 0 -38 -21 -76 -42 -76 -10 0 -18 -4 -18 -10
0 -6 -33 -10 -80 -10 -47 0 -80 4 -80 10 0 6 -7 10 -16 10 -18 0 -44 23 -44
39 0 6 -4 11 -10 11 -5 0 -10 8 -10 18 0 42 -44 55 -73 22 -9 -11 -12 -20 -7
-20 6 0 10 -11 10 -23 0 -31 48 -93 83 -108 15 -6 27 -15 27 -20 0 -5 50 -9
110 -9 67 0 110 4 110 10 0 6 7 10 16 10 23 0 74 39 74 56 0 8 5 14 10 14 6 0
10 32 10 75 0 43 -4 75 -10 75 -5 0 -10 5 -10 11 0 6 -6 17 -14 25 -8 8 -19
14 -25 14 -6 0 -11 5 -11 10 0 6 -13 10 -30 10 -16 0 -30 5 -30 10 0 6 -16 10
-35 10 -19 0 -35 5 -35 10 0 6 -18 10 -40 10 -22 0 -40 5 -40 10 0 6 -8 10
-18 10 -42 0 -70 83 -38 115 18 18 83 45 109 45 47 0 117 -35 117 -59 0 -6 5
-11 10 -11 6 0 10 -9 10 -20 0 -17 7 -20 45 -20 25 0 45 5 45 10 0 6 -4 10
-10 10 -5 0 -10 14 -10 30 0 17 -4 30 -10 30 -5 0 -10 5 -10 11 0 14 -25 39
-39 39 -6 0 -11 5 -11 10 0 6 -13 10 -30 10 -16 0 -30 5 -30 10 0 6 -32 10
-75 10 -43 0 -75 -4 -75 -10z"/>
<path d="M10538 6039 c-17 -9 -18 -34 -18 -294 l0 -285 35 0 35 0 0 289 c0
254 -2 290 -16 295 -19 7 -15 8 -36 -5z"/>
<path d="M10382 6031 c-8 -4 -12 -21 -10 -37 3 -25 7 -29 33 -29 28 0 30 3 30
35 0 27 -4 36 -20 38 -11 1 -26 -2 -33 -7z"/>
<path d="M10680 5750 l0 -290 30 0 29 0 3 248 c2 136 2 266 0 290 -3 39 -5 42
-33 42 l-29 0 0 -290z"/>
<path d="M418 5965 c-2 -3 -3 -18 0 -35 3 -21 10 -30 23 -30 11 0 19 -4 19
-10 0 -5 8 -10 18 -10 10 0 42 -11 70 -25 29 -14 61 -25 72 -25 11 0 20 -4 20
-10 0 -5 14 -10 30 -10 17 0 30 -4 30 -10 0 -5 7 -10 15 -10 8 0 15 -4 15 -10
0 -5 -8 -10 -17 -10 -19 0 -80 -20 -99 -32 -18 -12 -98 -38 -116 -38 -10 0
-18 -4 -18 -10 0 -5 -7 -10 -16 -10 -8 0 -22 -6 -30 -14 -16 -16 -19 -76 -4
-76 6 0 10 5 10 10 0 6 6 10 14 10 7 0 39 11 70 25 31 14 65 25 76 25 11 0 20
5 20 10 0 6 14 10 30 10 17 0 30 5 30 10 0 6 8 10 17 10 9 0 43 12 76 27 56
26 58 28 55 62 -2 30 -7 37 -28 39 -13 2 -33 10 -44 18 -11 8 -28 14 -38 14
-10 0 -18 5 -18 10 0 6 -13 10 -30 10 -16 0 -30 5 -30 10 0 6 -11 10 -25 10
-14 0 -25 5 -25 10 0 6 -10 10 -23 10 -13 0 -27 3 -30 7 -5 5 -105 43 -112 43
-1 0 -4 -2 -7 -5z"/>
<path d="M10370 5670 l0 -210 35 0 35 0 0 210 0 210 -35 0 -35 0 0 -210z"/>
<path d="M9366 5815 c-3 -9 -6 -54 -6 -101 0 -82 1 -84 26 -90 14 -4 30 -2 35
3 5 5 8 52 7 104 -3 93 -3 94 -29 97 -17 2 -29 -3 -33 -13z"/>
<path d="M14580 5385 l0 -295 211 0 210 0 -3 33 c-3 37 15 34 -205 36 l-143 1
0 103 0 102 123 -2 c167 -2 197 2 197 32 0 13 -6 25 -12 28 -7 2 -68 2 -136
-1 -178 -6 -172 -9 -172 93 0 72 3 84 18 89 10 4 84 5 164 5 79 -1 149 1 155
4 5 3 8 20 5 37 l-4 30 -204 0 -204 0 0 -295z"/>
<path d="M16256 5664 c-3 -9 -6 -29 -6 -45 0 -28 2 -30 33 -27 33 3 34 4 28
76 -1 18 -48 15 -55 -4z"/>
<path d="M16666 5664 c-3 -9 -6 -29 -6 -45 0 -27 3 -29 35 -29 35 0 35 0 35
45 0 43 -1 45 -29 45 -17 0 -31 -6 -35 -16z"/>
<path d="M17670 5385 l0 -295 35 0 35 0 0 295 0 295 -35 0 -35 0 0 -295z"/>
<path d="M9400 5560 c0 -5 -9 -10 -20 -10 -19 0 -20 -7 -20 -89 0 -94 6 -105
49 -94 19 5 21 12 21 88 0 46 -3 90 -6 99 -7 18 -24 22 -24 6z"/>
<path d="M258 5520 c-6 -37 -3 -40 39 -40 31 0 33 2 33 35 0 33 -2 35 -34 35
-30 0 -34 -3 -38 -30z"/>
<path d="M420 5515 l0 -35 205 0 205 0 0 35 0 35 -205 0 -205 0 0 -35z"/>
<path d="M15242 5508 c-24 -12 -46 -27 -49 -35 -9 -24 -23 -14 -23 18 0 24 -3
30 -16 25 -9 -3 -22 -6 -30 -6 -12 0 -14 -35 -14 -210 l0 -210 30 0 c27 0 30
3 30 33 0 211 18 303 60 314 11 3 20 9 20 14 0 5 16 9 35 9 19 0 35 -4 35 -10
0 -5 7 -10 15 -10 15 0 18 -27 19 -230 1 -99 9 -120 47 -120 l29 0 1 138 c1
149 4 166 34 206 27 36 86 36 120 1 24 -24 25 -28 25 -185 l0 -160 35 0 35 0
0 175 c0 96 -3 175 -8 175 -4 0 -16 16 -26 35 -11 20 -27 35 -37 35 -10 0 -29
5 -43 11 -30 14 -76 -1 -112 -38 -28 -28 -32 -28 -53 -4 -20 23 -75 51 -98 51
-10 -1 -38 -10 -61 -22z"/>
<path d="M15931 5515 c-19 -7 -43 -22 -52 -34 l-18 -22 -7 25 c-5 20 -12 26
-35 26 l-29 0 0 -285 0 -285 25 -6 c14 -4 28 -4 31 -1 3 3 5 44 5 91 0 85 0
86 24 86 14 0 25 -4 25 -10 0 -6 28 -10 65 -10 37 0 65 4 65 10 0 6 8 10 17
10 22 0 82 66 89 99 3 14 10 36 15 49 12 30 12 92 -1 92 -5 0 -10 14 -10 30 0
29 -5 38 -37 75 -7 7 -13 18 -13 23 0 5 -12 14 -27 20 -36 13 -96 32 -97 31
-1 -1 -16 -7 -35 -14z m89 -65 c0 -5 7 -10 15 -10 8 0 15 -9 15 -20 0 -11 5
-20 10 -20 6 0 10 -38 10 -95 0 -89 -2 -98 -25 -121 -34 -34 -67 -45 -105 -34
-37 11 -70 45 -70 72 0 10 -4 18 -10 18 -6 0 -10 26 -10 59 0 33 5 63 10 66 6
3 10 14 10 23 0 9 12 29 28 44 21 21 37 27 75 27 26 1 47 -3 47 -9z"/>
<path d="M16528 5513 c-21 -8 -39 -24 -43 -36 -6 -20 -7 -19 -16 11 -9 32 -22
38 -53 26 -14 -5 -16 -34 -16 -215 l0 -209 35 0 35 0 0 109 c0 113 15 206 36
229 7 6 35 12 63 12 51 0 51 0 51 33 0 44 -39 61 -92 40z"/>
<path d="M16931 5513 c-25 -9 -59 -30 -76 -47 -54 -55 -73 -168 -40 -251 9
-22 18 -48 21 -57 4 -10 15 -20 25 -23 10 -4 19 -11 19 -16 0 -5 7 -9 15 -9 8
0 15 -4 15 -10 0 -6 32 -10 75 -10 43 0 75 4 75 10 0 6 7 10 16 10 26 0 66 52
78 103 6 26 5 27 -34 27 -35 0 -40 -3 -40 -23 0 -42 -35 -67 -94 -67 -46 0
-56 4 -79 30 -25 28 -27 36 -27 121 0 59 4 95 13 103 6 8 19 23 27 35 22 32
102 30 135 -4 14 -13 25 -31 25 -40 0 -12 6 -14 28 -9 41 10 45 18 26 56 -12
26 -30 42 -63 56 -66 29 -90 32 -140 15z"/>
<path d="M17354 5514 c-56 -14 -76 -26 -112 -69 -22 -26 -10 -50 26 -53 19 -2
32 1 32 8 0 6 11 22 25 35 20 21 34 25 80 25 30 0 55 -4 55 -10 0 -5 6 -10 14
-10 17 0 26 -22 26 -61 0 -27 -3 -29 -35 -29 -19 0 -35 -4 -35 -10 0 -6 -28
-10 -65 -10 -37 0 -65 -4 -65 -10 0 -5 -6 -10 -12 -10 -20 -1 -58 -36 -58 -54
0 -9 -4 -16 -10 -16 -5 0 -10 -18 -10 -40 0 -30 7 -47 25 -65 13 -14 29 -25
35 -25 5 0 10 -4 10 -10 0 -6 34 -10 83 -10 71 0 85 3 97 20 8 11 25 20 37 20
16 0 23 -6 23 -20 0 -16 7 -20 33 -20 l32 0 -3 167 c-2 93 -7 172 -13 178 -5
5 -9 16 -9 25 0 18 -71 57 -116 64 -16 3 -56 -2 -90 -10z m144 -243 c9 -57
-27 -107 -90 -129 -67 -23 -127 25 -111 88 5 21 39 35 123 55 68 15 74 14 78
-14z"/>
<path d="M16263 5513 c-10 -3 -13 -56 -13 -214 l0 -209 30 0 c28 0 30 3 30 35
0 19 1 112 1 205 0 94 -1 175 -1 180 0 10 -26 12 -47 3z"/>
<path d="M16660 5300 l0 -210 35 0 35 0 0 210 0 210 -35 0 -35 0 0 -210z"/>
<path d="M12909 5428 c0 -7 -2 -24 -4 -38 -2 -14 -1 -33 2 -42 4 -17 38 -18
526 -18 l522 0 1 55 2 55 -524 0 c-412 0 -524 -3 -525 -12z"/>
<path d="M490 5360 c0 -5 -9 -10 -21 -10 -25 0 -49 -22 -49 -45 0 -9 -5 -25
-11 -37 -8 -14 -7 -31 2 -64 8 -24 17 -44 21 -44 4 0 8 -7 8 -15 0 -8 5 -15
10 -15 16 0 11 -31 -8 -49 -28 -25 -48 -98 -34 -122 7 -10 12 -25 12 -32 0 -7
9 -19 20 -27 11 -8 20 -18 20 -22 0 -4 -9 -8 -20 -8 -16 0 -20 -7 -20 -35 l0
-35 205 0 205 0 0 35 0 35 -140 0 c-87 0 -140 4 -140 10 0 6 -9 10 -20 10 -11
0 -20 5 -20 10 0 6 -5 10 -11 10 -33 0 -51 70 -25 96 8 7 16 19 18 26 4 10 48
14 171 16 l167 4 0 29 0 29 -110 0 c-67 0 -110 4 -110 10 0 6 -21 10 -46 10
-48 0 -68 13 -91 58 -16 29 -17 52 -3 52 6 0 10 9 10 20 0 32 82 50 227 50
l123 0 0 30 0 30 -170 0 c-107 0 -170 -4 -170 -10z"/>
<path d="M9367 5294 c-4 -4 -7 -45 -7 -91 0 -87 10 -113 44 -113 21 0 27 31
24 125 -3 77 -4 80 -28 83 -14 2 -29 0 -33 -4z"/>
<path d="M9383 5030 c-21 -9 -23 -15 -23 -99 0 -95 10 -113 51 -91 16 9 19 22
19 90 0 77 -6 111 -19 109 -3 0 -16 -4 -28 -9z"/>
<path d="M2522 4769 c2 -26 8 -34 23 -35 77 -6 191 -26 193 -34 2 -6 14 -10
27 -10 13 0 27 -4 30 -10 3 -5 16 -10 27 -10 11 0 31 -12 44 -27 l24 -28 0
-405 c0 -375 2 -408 19 -447 23 -49 76 -103 102 -103 11 0 19 -4 19 -10 0 -5
14 -10 30 -10 17 0 30 -4 30 -10 0 -5 -9 -10 -20 -10 -11 0 -20 -4 -20 -10 0
-5 -7 -10 -15 -10 -19 0 -61 -26 -93 -58 -51 -49 -52 -62 -52 -497 l0 -406
-25 -25 c-50 -50 -147 -82 -277 -91 -68 -5 -68 -5 -68 -35 l0 -30 73 6 c110 8
167 17 167 27 0 5 16 9 35 9 19 0 35 5 35 10 0 6 7 10 16 10 9 0 38 21 65 48
l48 47 1 428 c0 278 3 427 10 427 6 0 10 6 10 13 0 19 30 41 80 56 25 8 50 18
55 22 6 3 33 9 60 13 141 19 195 31 200 44 11 29 -15 41 -98 45 -93 5 -180 23
-185 37 -2 6 -9 10 -16 10 -18 0 -66 24 -66 33 0 4 -7 7 -15 7 -8 0 -15 7 -15
15 0 8 -4 15 -10 15 -7 0 -10 150 -10 430 0 280 -3 430 -10 430 -5 0 -10 5
-10 11 0 14 -48 57 -72 65 -10 3 -18 10 -18 15 0 5 -9 9 -20 9 -11 0 -20 5
-20 10 0 6 -16 10 -35 10 -19 0 -35 4 -35 9 0 5 -30 12 -67 15 -38 2 -87 8
-111 12 l-43 6 3 -33z"/>
<path d="M9366 4764 c-3 -9 -6 -53 -6 -100 0 -80 1 -84 24 -90 40 -10 46 2 46
91 0 99 -5 115 -35 115 -13 0 -26 -7 -29 -16z"/>
<path d="M573 4723 c-23 -2 -47 -11 -53 -19 -7 -7 -19 -14 -26 -14 -8 0 -14
-4 -14 -10 0 -5 -9 -10 -20 -10 -13 0 -20 -7 -20 -20 0 -11 -4 -20 -10 -20 -5
0 -10 -9 -10 -20 0 -10 -5 -30 -11 -44 -9 -18 -9 -33 -1 -53 6 -15 13 -40 16
-54 7 -34 32 -60 87 -92 65 -38 163 -38 228 0 54 31 63 40 81 73 18 33 20 182
2 188 -6 2 -12 10 -12 19 0 20 -23 41 -65 59 -31 13 -36 13 -41 0 -10 -25 0
-59 21 -70 33 -19 45 -34 45 -55 0 -12 5 -21 10 -21 6 0 10 -9 10 -20 0 -11
-4 -20 -10 -20 -5 0 -10 -10 -10 -23 0 -27 -42 -67 -70 -67 -11 0 -20 -4 -20
-10 0 -5 -9 -10 -20 -10 -18 0 -20 8 -22 157 -2 94 -7 157 -13 158 -5 1 -29 0
-52 -2z m5 -86 c11 -13 10 -112 -1 -123 -4 -4 -3 -12 1 -18 3 -6 7 -23 8 -38
2 -25 -2 -28 -32 -28 -35 0 -74 25 -74 47 0 7 -4 13 -10 13 -5 0 -10 20 -10
45 0 25 5 45 10 45 6 0 10 6 10 13 0 8 11 20 25 27 14 7 25 17 25 22 0 13 36
9 48 -5z"/>
<path d="M1645 4527 c-27 -29 -63 -59 -80 -67 -46 -23 -55 -35 -47 -63 l7 -26
48 21 c26 11 47 24 47 29 0 5 11 9 25 9 l24 0 0 -202 c0 -112 1 -211 1 -220 0
-13 8 -18 30 -18 l30 0 0 295 c0 339 2 332 -85 242z"/>
<path d="M9383 4503 c-22 -4 -23 -9 -23 -89 0 -66 4 -89 17 -102 12 -12 18
-13 21 -4 2 6 10 12 18 12 12 0 14 17 12 92 -3 93 -6 98 -45 91z"/>
<path d="M645 4253 c-50 -10 -95 -42 -95 -67 0 -9 -3 -16 -8 -16 -10 0 -29
-47 -38 -93 -3 -20 -10 -40 -15 -43 -5 -3 -9 -18 -9 -35 0 -16 -4 -29 -10 -29
-5 0 -10 -9 -10 -21 0 -11 -7 -27 -16 -36 -32 -33 -114 -9 -114 34 0 13 -4 23
-10 23 -5 0 -10 25 -10 55 0 30 5 55 10 55 6 0 10 7 10 16 0 19 58 74 78 74 9
0 12 11 10 33 -3 29 -6 32 -33 29 -16 -2 -31 -8 -33 -13 -2 -5 -10 -9 -19 -9
-23 0 -73 -64 -73 -95 0 -8 -4 -15 -10 -15 -14 0 -12 -108 3 -150 26 -71 54
-110 81 -110 9 0 16 -4 16 -10 0 -25 114 -5 147 26 22 21 53 85 53 109 0 14 5
25 10 25 6 0 10 12 10 28 0 30 23 101 42 132 7 11 20 20 30 20 9 0 18 5 20 10
5 17 79 -18 85 -41 3 -10 9 -19 14 -19 15 0 10 -135 -6 -172 -13 -34 -52 -68
-75 -68 -20 0 -40 -28 -40 -54 0 -29 8 -31 64 -15 41 11 92 56 116 102 18 37
21 210 3 228 -7 7 -13 19 -13 26 0 18 -45 63 -64 63 -8 0 -16 4 -18 8 -4 11
-56 20 -83 15z"/>
<path d="M9367 4244 c-4 -4 -7 -49 -7 -100 0 -92 0 -94 26 -100 14 -4 30 -2
35 3 5 5 8 52 7 104 -3 92 -3 94 -28 97 -14 2 -29 0 -33 -4z"/>
<path d="M3698 3998 c-2 -7 -2 -139 1 -293 l6 -280 33 -3 32 -3 0 220 c0 122
3 221 6 221 9 0 29 -23 49 -57 11 -18 23 -33 27 -33 4 0 8 -9 8 -20 0 -11 4
-20 8 -20 5 0 19 -19 32 -42 23 -42 32 -54 58 -83 6 -7 12 -18 12 -24 0 -6 5
-11 10 -11 6 0 10 -7 10 -15 0 -9 11 -27 25 -41 14 -14 25 -28 25 -32 0 -4 11
-19 24 -34 26 -31 70 -38 80 -12 8 20 8 538 0 558 -4 10 -18 16 -35 16 l-29 0
0 -220 c0 -121 -4 -220 -8 -220 -4 0 -16 15 -27 33 -10 17 -27 41 -37 51 -10
11 -18 26 -18 33 0 7 -4 13 -10 13 -5 0 -10 7 -10 15 0 8 -4 15 -8 15 -5 0
-16 15 -25 33 -25 47 -40 70 -59 88 -10 9 -18 24 -18 33 0 9 -4 16 -10 16 -5
0 -10 5 -10 11 0 6 -6 16 -12 24 -7 7 -24 27 -37 44 -18 24 -31 31 -56 31 -18
0 -35 -6 -37 -12z"/>
<path d="M6160 3980 c0 -5 -9 -10 -20 -10 -18 0 -20 -7 -20 -55 0 -42 -3 -55
-15 -55 -8 0 -15 -4 -15 -10 0 -5 -9 -10 -21 -10 -15 0 -20 -5 -17 -22 2 -18
11 -24 36 -26 l32 -3 0 -160 c0 -156 1 -160 25 -184 18 -18 35 -25 65 -25 39
0 40 1 40 35 0 32 -3 35 -29 35 -17 0 -31 6 -35 16 -3 9 -6 76 -6 150 l0 134
35 0 c31 0 35 3 35 25 0 23 -14 31 -44 26 -17 -4 -26 24 -26 87 0 34 -4 62
-10 62 -5 0 -10 -4 -10 -10z"/>
<path d="M9400 3980 c0 -5 -9 -10 -20 -10 -19 0 -20 -7 -20 -89 0 -94 6 -105
49 -94 19 5 21 12 21 88 0 46 -3 90 -6 99 -7 18 -24 22 -24 6z"/>
<path d="M4840 3850 c0 -5 -9 -10 -20 -10 -11 0 -20 -4 -20 -9 0 -5 -8 -12
-17 -15 -10 -3 -31 -33 -47 -67 -26 -55 -28 -68 -22 -128 3 -36 10 -67 16 -69
5 -2 10 -11 10 -21 0 -9 9 -23 20 -31 11 -8 20 -18 20 -23 0 -20 31 -37 68
-37 23 0 43 -6 46 -12 5 -10 7 -10 12 0 3 6 19 12 34 12 16 0 33 7 38 15 11
21 42 9 42 -16 0 -10 -4 -19 -10 -19 -5 0 -10 -12 -10 -26 0 -39 -55 -84 -105
-84 -33 0 -87 30 -93 52 -7 28 -68 22 -64 -7 5 -35 25 -65 43 -65 9 0 19 -5
21 -12 3 -9 32 -12 95 -12 90 1 90 1 127 37 55 55 66 114 66 333 -1 158 -3
185 -18 202 -15 17 -20 18 -35 7 -9 -7 -17 -17 -17 -24 0 -16 -16 -14 -34 4
-8 8 -24 15 -35 15 -12 0 -21 5 -21 10 0 6 -20 10 -45 10 -25 0 -45 -4 -45
-10z m93 -60 c27 0 67 -47 67 -79 0 -17 5 -31 10 -31 6 0 10 -18 10 -40 0 -22
-4 -40 -10 -40 -5 0 -10 -14 -10 -31 0 -33 -19 -59 -44 -59 -9 0 -16 -4 -16
-10 0 -14 -66 -12 -92 3 -38 21 -48 35 -48 66 0 17 -4 31 -10 31 -5 0 -10 20
-10 45 0 25 5 45 10 45 6 0 10 12 10 28 0 39 69 88 108 76 8 -2 19 -4 25 -4z"/>
<path d="M5300 3850 c0 -5 -9 -10 -20 -10 -11 0 -20 -4 -20 -9 0 -5 -9 -13
-20 -16 -11 -3 -20 -15 -20 -26 0 -10 -4 -19 -9 -19 -17 0 -36 -66 -36 -125 0
-46 6 -73 25 -108 14 -26 28 -47 32 -47 5 0 8 -5 8 -11 0 -20 29 -39 58 -39
17 0 32 -5 34 -11 3 -9 9 -9 25 0 12 6 33 11 47 11 14 0 28 5 31 10 10 16 45
12 45 -5 0 -8 -4 -15 -10 -15 -5 0 -10 -13 -10 -30 0 -34 -26 -70 -52 -70 -10
0 -18 -4 -18 -10 0 -31 -119 7 -127 41 -3 11 -14 19 -24 19 -11 0 -19 5 -19
10 0 6 -4 10 -10 10 -15 0 -12 -80 4 -96 8 -8 22 -14 30 -14 9 0 16 -4 16 -9
0 -8 61 -21 100 -21 82 -1 160 53 174 120 4 19 10 131 13 248 l5 212 -36 0
c-20 0 -36 -4 -36 -10 0 -5 -9 -10 -20 -10 -11 0 -20 5 -20 10 0 6 -11 10 -25
10 -14 0 -25 5 -25 10 0 6 -20 10 -45 10 -25 0 -45 -4 -45 -10z m133 -84 c19
-16 27 -33 27 -55 0 -17 5 -31 10 -31 6 0 10 -18 10 -40 0 -22 -4 -40 -10 -40
-5 0 -10 -14 -10 -31 0 -30 -19 -59 -39 -59 -6 0 -11 -4 -11 -10 0 -5 -18 -10
-40 -10 -65 0 -109 33 -110 83 0 15 -4 27 -10 27 -5 0 -10 18 -10 39 0 22 5
43 10 46 6 3 10 18 10 32 0 40 45 73 100 73 33 0 52 -6 73 -24z"/>
<path d="M5780 3850 c0 -5 -11 -10 -25 -10 -14 0 -28 -7 -31 -15 -3 -8 -14
-17 -25 -20 -12 -4 -19 -16 -19 -31 0 -13 -4 -24 -8 -24 -14 0 -32 -64 -32
-113 0 -50 20 -127 32 -127 5 0 8 -5 8 -10 0 -19 48 -60 70 -60 11 0 20 -4 20
-10 0 -15 138 -13 157 3 42 33 83 80 83 97 0 11 -10 20 -27 23 -23 4 -34 -1
-61 -30 -29 -32 -38 -36 -86 -37 -49 0 -57 3 -85 33 -17 18 -31 44 -31 57 0
13 -6 24 -12 24 -9 0 -8 4 2 10 8 5 84 10 168 10 l152 0 0 30 c0 17 -4 30 -10
30 -5 0 -10 16 -10 35 0 19 -4 35 -10 35 -5 0 -10 6 -10 13 -1 19 -36 57 -54
57 -9 0 -16 5 -16 10 0 6 -7 10 -15 10 -8 0 -15 5 -15 10 0 6 -25 10 -55 10
-30 0 -55 -4 -55 -10z m126 -74 c8 -8 14 -22 14 -30 0 -9 5 -16 10 -16 6 0 10
-11 10 -25 l0 -25 -110 0 c-109 0 -110 0 -110 24 0 13 12 37 28 54 24 28 33
31 85 32 38 0 63 -5 73 -14z"/>
<path d="M4303 3843 c-23 -4 -23 -6 -23 -169 0 -103 4 -164 10 -164 6 0 10 -9
10 -21 0 -24 22 -49 44 -49 9 0 16 -4 16 -10 0 -5 25 -10 55 -10 53 0 83 10
113 38 21 19 32 14 32 -13 0 -20 5 -25 25 -25 34 0 36 14 33 230 l-3 185 -37
3 -38 3 0 -151 c0 -147 -1 -152 -25 -175 -19 -20 -34 -25 -72 -25 -26 0 -55 6
-63 13 -29 24 -40 82 -40 215 0 73 -3 131 -7 131 -5 -1 -18 -4 -30 -6z"/>
<path d="M9367 3714 c-4 -4 -7 -45 -7 -91 0 -87 10 -113 44 -113 21 0 27 31
24 125 -3 77 -4 80 -28 83 -14 2 -29 0 -33 -4z"/>
<path d="M9383 3453 c-22 -4 -23 -9 -23 -92 0 -99 11 -122 50 -101 19 10 21
18 18 102 -3 93 -6 98 -45 91z"/>
<path d="M9366 3184 c-3 -9 -6 -53 -6 -100 0 -80 1 -84 24 -90 40 -10 46 2 46
91 0 99 -5 115 -35 115 -13 0 -26 -7 -29 -16z"/>
<path d="M9383 2923 c-22 -4 -23 -9 -23 -94 0 -70 3 -89 14 -89 8 0 16 -6 18
-12 3 -9 9 -8 22 4 14 14 16 33 14 104 -3 89 -6 94 -45 87z"/>
<path d="M1615 2600 c-3 -5 -15 -10 -26 -10 -23 0 -79 -54 -79 -75 0 -8 -4
-15 -10 -15 -5 0 -10 -13 -10 -30 0 -16 -4 -30 -10 -30 -6 0 -10 -52 -10 -135
0 -83 4 -135 10 -135 6 0 10 -13 10 -30 0 -16 4 -30 9 -30 5 0 12 -11 15 -25
4 -14 13 -25 21 -25 8 0 15 -4 15 -10 0 -5 7 -10 15 -10 8 0 15 -4 15 -10 0
-6 32 -10 75 -10 43 0 75 4 75 10 0 6 5 10 10 10 17 0 60 47 60 65 0 8 5 15
10 15 6 0 10 16 10 35 0 19 5 35 10 35 6 0 10 46 10 119 0 69 -4 122 -10 126
-5 3 -10 19 -10 36 0 16 -4 29 -10 29 -5 0 -10 7 -10 16 0 18 -45 61 -72 70
-10 3 -18 10 -18 15 0 12 -87 12 -95 -1z m106 -82 c11 -12 26 -44 34 -71 25
-84 15 -305 -14 -315 -6 -2 -11 -8 -11 -14 0 -22 -31 -38 -75 -38 -45 0 -75
16 -75 39 0 6 -4 11 -10 11 -5 0 -10 13 -10 29 0 17 -4 33 -10 36 -6 4 -10 55
-10 120 0 65 4 116 10 120 6 3 10 17 10 31 0 14 10 36 23 49 31 33 111 35 138
3z"/>
<path d="M4923 2013 c-7 -2 -13 -11 -13 -19 0 -19 -36 -55 -75 -74 -16 -8 -36
-21 -43 -27 -7 -7 -18 -13 -23 -13 -5 0 -9 -18 -9 -40 0 -22 5 -40 10 -40 6 0
10 5 10 10 0 6 11 10 25 10 14 0 25 4 25 9 0 5 8 11 18 15 9 3 23 9 30 12 9 4
12 -41 12 -210 l0 -216 35 0 c27 0 35 4 35 18 0 9 2 123 4 252 5 290 0 330
-41 313z"/>
<path d="M2070 2004 c-55 -19 -90 -39 -95 -55 -4 -11 -11 -19 -16 -19 -5 0 -9
-9 -9 -20 0 -11 -4 -20 -10 -20 -5 0 -10 -20 -10 -45 0 -25 -4 -45 -10 -45 -6
0 -10 -37 -10 -90 0 -53 4 -90 10 -90 6 0 10 -18 10 -40 0 -22 5 -40 10 -40 6
0 10 -10 10 -23 0 -12 11 -31 27 -42 14 -11 32 -26 39 -33 24 -24 110 -27 157
-6 50 22 67 37 67 58 0 9 5 16 10 16 6 0 10 9 10 20 0 11 4 20 9 20 8 0 21 97
21 160 0 63 -13 160 -21 160 -5 0 -9 11 -9 25 0 60 -125 131 -190 109z m60
-64 c0 -5 7 -10 16 -10 21 0 37 -18 54 -60 20 -46 21 -293 3 -311 -7 -7 -13
-19 -13 -27 0 -18 -25 -42 -44 -42 -9 0 -16 -4 -16 -10 0 -5 -11 -10 -25 -10
-14 0 -25 5 -25 10 0 6 -7 10 -16 10 -19 0 -34 15 -54 54 -11 22 -15 64 -15
166 0 143 6 169 50 217 20 22 85 32 85 13z"/>
<path d="M5315 2003 c-49 -10 -95 -37 -95 -55 0 -10 -4 -18 -8 -18 -20 0 -62
-151 -62 -223 0 -25 9 -71 32 -160 14 -56 78 -114 134 -123 64 -9 106 2 145
39 52 49 69 110 69 250 0 106 -3 124 -26 174 -31 69 -76 113 -114 113 -16 0
-34 2 -42 4 -7 2 -22 2 -33 -1z m95 -82 c17 -15 30 -36 30 -45 0 -9 5 -16 10
-16 6 0 10 -57 10 -150 0 -93 -4 -150 -10 -150 -5 0 -10 -6 -10 -12 -1 -20
-36 -58 -54 -58 -9 0 -16 -4 -16 -10 0 -5 -9 -10 -20 -10 -11 0 -20 5 -20 10
0 6 -7 10 -15 10 -19 0 -55 31 -55 47 0 7 -4 13 -10 13 -6 0 -10 60 -10 160 0
100 4 160 10 160 6 0 10 7 10 16 0 18 23 44 39 44 6 0 11 5 11 10 0 6 16 10
35 10 25 0 44 -8 65 -29z"/>
<path d="M7846 2003 c-32 -5 -69 -27 -103 -60 -16 -16 -23 -34 -23 -63 0 -38
2 -40 30 -40 25 0 30 4 30 25 0 14 4 25 9 25 5 0 13 9 16 20 3 11 15 20 26 20
10 0 19 5 19 10 0 6 20 10 45 10 25 0 45 -4 45 -10 0 -5 9 -10 20 -10 13 0 20
-7 20 -20 0 -11 5 -20 10 -20 6 0 10 -12 10 -27 0 -32 -21 -93 -32 -93 -4 0
-8 -6 -8 -13 0 -7 -21 -30 -47 -52 -25 -22 -61 -55 -79 -72 -18 -18 -36 -33
-39 -33 -10 0 -55 -49 -55 -60 0 -5 -4 -10 -10 -10 -5 0 -10 -9 -10 -20 0 -11
-4 -20 -10 -20 -5 0 -10 -15 -10 -34 l0 -33 183 1 182 1 3 33 3 32 -130 0
c-119 0 -131 2 -131 18 0 10 9 24 21 32 12 8 42 34 67 58 25 23 49 42 54 42 4
0 8 5 8 10 0 6 20 31 45 56 25 24 45 51 45 59 0 8 5 15 10 15 6 0 10 28 10 64
0 63 -1 65 -46 110 -28 28 -55 46 -69 46 -12 0 -35 2 -51 4 -16 2 -42 2 -58
-1z"/>
<path d="M8318 2001 c-42 -7 -117 -67 -118 -93 0 -10 -4 -18 -9 -18 -20 0 -40
-245 -22 -263 6 -6 11 -30 11 -54 0 -24 5 -43 10 -43 6 0 10 -7 10 -15 0 -17
30 -50 70 -78 53 -37 155 -18 202 38 49 57 58 80 58 150 0 37 4 65 10 65 6 0
10 9 10 20 0 11 -4 20 -10 20 -6 0 -10 28 -10 64 0 36 -4 68 -10 71 -5 3 -10
15 -10 26 0 10 -4 19 -10 19 -5 0 -10 9 -10 20 0 11 -5 20 -10 20 -6 0 -22 11
-36 25 -14 14 -33 25 -44 25 -10 0 -24 2 -32 4 -7 1 -30 0 -50 -3z m62 -61 c0
-5 7 -10 16 -10 22 0 44 -25 44 -49 0 -12 5 -21 10 -21 6 0 10 -55 10 -144 0
-86 -4 -147 -10 -151 -5 -3 -10 -13 -10 -20 0 -19 -31 -55 -47 -55 -7 0 -13
-4 -13 -10 0 -19 -61 -10 -83 13 -47 47 -57 89 -57 228 0 136 4 150 55 206 21
22 85 32 85 13z"/>
<path d="M10596 2002 c-50 -4 -116 -45 -116 -71 0 -6 -4 -11 -10 -11 -15 0
-12 -49 4 -66 19 -18 46 -18 46 0 0 26 35 76 53 76 9 0 17 5 17 10 0 6 18 10
40 10 22 0 40 -4 40 -10 0 -5 7 -10 15 -10 8 0 15 -9 15 -20 0 -11 5 -20 10
-20 6 0 10 -14 10 -30 0 -49 -74 -109 -115 -94 -11 5 -15 -1 -15 -25 0 -30 1
-31 45 -31 25 0 45 -4 45 -9 0 -5 9 -13 20 -16 11 -3 20 -13 20 -21 0 -8 5
-14 10 -14 6 0 10 -25 10 -55 0 -30 -4 -55 -10 -55 -5 0 -10 -5 -10 -11 0 -16
-26 -39 -44 -39 -9 0 -16 -4 -16 -10 0 -5 -11 -10 -25 -10 -14 0 -25 5 -25 10
0 6 -10 10 -23 10 -25 0 -67 47 -67 75 0 11 -10 15 -36 15 l-36 0 7 -42 c13
-74 83 -119 185 -117 37 1 67 7 75 15 7 8 17 14 20 14 4 0 23 17 41 37 33 35
34 40 34 115 0 45 -4 78 -10 78 -5 0 -10 7 -10 15 0 8 -9 15 -20 15 -11 0 -20
5 -20 10 0 6 -7 10 -15 10 -22 0 -19 8 20 44 30 29 35 40 35 80 0 60 -29 116
-59 116 -6 0 -11 4 -11 9 0 17 -66 29 -124 23z"/>
<path d="M11040 1998 c-38 -10 -100 -69 -100 -93 0 -8 -4 -15 -9 -15 -11 0
-20 -59 -27 -177 -4 -64 -3 -93 5 -93 6 0 11 -18 11 -40 0 -22 5 -40 10 -40 6
0 10 -10 10 -21 0 -12 16 -36 36 -54 52 -47 128 -59 187 -29 42 22 87 71 87
95 0 10 5 19 10 19 6 0 10 60 10 160 0 100 -4 160 -10 160 -5 0 -10 8 -10 19
0 28 -71 100 -110 111 -41 12 -53 12 -100 -2z m90 -58 c0 -5 5 -10 11 -10 17
0 39 -27 39 -49 0 -12 5 -21 10 -21 15 0 13 -252 -2 -300 -7 -22 -16 -40 -20
-40 -5 0 -8 -7 -8 -15 0 -8 -9 -15 -20 -15 -11 0 -20 -4 -20 -10 0 -5 -11 -10
-25 -10 -14 0 -25 5 -25 10 0 6 -7 10 -16 10 -20 0 -36 17 -57 62 -23 48 -24
261 -2 314 17 42 38 64 59 64 9 0 16 5 16 10 0 6 14 10 30 10 17 0 30 -4 30
-10z"/>
<path d="M13830 2003 c-19 -8 -40 -29 -40 -40 0 -5 -9 -15 -20 -23 -11 -8 -20
-20 -20 -27 0 -6 -11 -24 -25 -39 -14 -15 -25 -32 -25 -38 0 -6 -9 -18 -20
-26 -11 -8 -20 -20 -20 -27 0 -7 -4 -13 -10 -13 -5 0 -10 -6 -10 -12 0 -11
-13 -29 -60 -85 -5 -7 -10 -17 -10 -23 0 -5 -4 -10 -10 -10 -15 0 -12 -49 3
-64 9 -9 37 -13 87 -11 41 2 94 0 118 -3 l42 -5 0 -63 c0 -68 6 -78 45 -68 24
6 25 9 25 80 l0 74 28 -6 c39 -7 57 8 43 35 -8 14 -21 21 -41 21 l-30 0 0 184
c0 158 -2 185 -16 190 -9 3 -16 6 -17 5 -1 0 -9 -3 -17 -6z m-20 -242 c0 -127
3 -123 -102 -126 -56 -1 -68 2 -68 15 0 8 9 22 20 30 11 8 20 22 20 32 0 10 4
18 8 18 4 0 16 15 27 33 10 17 27 39 37 48 10 9 18 23 18 32 0 9 8 18 18 20 9
3 18 5 20 6 1 0 2 -48 2 -108z"/>
<path d="M14205 2005 c-5 -2 -22 -6 -36 -9 -102 -22 -157 -201 -121 -397 12
-68 24 -92 69 -136 29 -30 43 -36 92 -40 43 -4 66 -1 91 12 44 23 80 60 80 83
0 10 6 24 13 30 8 9 12 56 12 162 0 106 -4 153 -12 162 -7 6 -13 20 -13 30 0
51 -120 122 -175 103z m85 -84 c17 -15 30 -36 30 -45 0 -9 5 -16 10 -16 6 0
10 -53 10 -139 0 -83 -4 -142 -10 -146 -5 -3 -10 -14 -10 -23 -1 -23 -35 -62
-54 -62 -9 0 -16 -4 -16 -10 0 -5 -9 -10 -20 -10 -11 0 -20 5 -20 10 0 6 -9
10 -20 10 -11 0 -20 5 -20 10 0 6 -7 10 -15 10 -9 0 -15 9 -15 25 0 14 -4 25
-10 25 -6 0 -10 58 -10 155 0 97 4 155 10 155 6 0 10 7 10 16 0 18 23 44 39
44 6 0 11 5 11 10 0 6 16 10 35 10 25 0 44 -8 65 -29z"/>
<path d="M6457 948 c-16 -12 -17 -39 -15 -293 l3 -280 178 -3 177 -2 0 35 0
35 -131 0 c-100 0 -134 3 -145 14 -11 12 -14 60 -14 254 0 210 -2 241 -16 246
-20 8 -17 8 -37 -6z"/>
<path d="M8323 953 c-9 -3 -13 -32 -13 -94 0 -82 -1 -89 -20 -89 -11 0 -20 5
-20 10 0 6 -16 10 -35 10 -19 0 -35 5 -35 10 0 6 -9 10 -20 10 -11 0 -20 -4
-20 -10 0 -5 -12 -10 -27 -10 -100 0 -164 -240 -90 -335 58 -74 76 -85 143
-85 51 0 68 4 84 20 26 26 40 25 40 -1 0 -17 5 -20 31 -17 l30 3 2 283 c1 239
-1 285 -13 292 -16 11 -19 11 -37 3z m-85 -225 c2 -4 10 -8 17 -8 8 0 19 -16
26 -35 7 -19 17 -35 21 -35 4 0 8 -31 8 -70 0 -40 -4 -70 -10 -70 -5 0 -10 -9
-10 -21 0 -23 -22 -49 -42 -49 -8 0 -18 -4 -24 -10 -14 -14 -82 7 -110 35 -22
22 -24 32 -24 120 0 52 4 95 9 95 5 0 12 9 16 19 12 38 111 62 123 29z"/>
<path d="M8500 930 c-14 -26 5 -64 27 -56 8 3 21 6 29 6 20 0 18 56 -2 64 -27
11 -43 7 -54 -14z"/>
<path d="M9068 901 c-12 -12 -18 -33 -18 -64 0 -40 -3 -47 -20 -47 -15 0 -20
-7 -20 -25 0 -18 5 -25 20 -25 11 0 20 -6 21 -12 1 -7 2 -74 4 -148 3 -168 1
-154 29 -184 19 -22 32 -26 75 -26 l52 0 -3 33 c-3 27 -7 33 -32 35 -53 6 -57
18 -54 164 l3 133 33 3 c26 3 32 7 32 28 0 21 -5 24 -35 24 l-35 0 0 65 c0 55
-3 65 -17 64 -10 0 -26 -8 -35 -18z"/>
<path d="M7040 800 c0 -5 -14 -10 -31 -10 -40 0 -99 -33 -99 -55 0 -4 -7 -13
-15 -21 -19 -19 -19 -34 -1 -34 8 0 16 -5 18 -11 6 -17 58 11 58 31 0 23 37
41 87 43 49 2 93 -19 93 -45 0 -10 5 -18 10 -18 6 0 10 -8 10 -19 0 -20 -57
-38 -152 -48 -27 -3 -48 -9 -48 -14 0 -5 -9 -9 -20 -9 -11 0 -20 -4 -20 -10 0
-5 -6 -10 -13 -10 -16 0 -33 -27 -41 -67 -10 -42 17 -99 55 -118 55 -29 191
-12 214 26 10 16 25 10 25 -10 0 -21 19 -31 55 -31 26 0 41 15 25 25 -6 4 -10
63 -10 150 0 116 -3 152 -17 182 -25 54 -37 63 -77 63 -20 0 -36 5 -36 10 0 6
-16 10 -35 10 -19 0 -35 -4 -35 -10z m130 -255 c0 -14 -4 -25 -10 -25 -5 0
-10 -8 -10 -18 0 -24 -33 -62 -54 -62 -9 0 -16 -4 -16 -10 0 -5 -20 -10 -45
-10 -25 0 -45 5 -45 10 0 6 -9 10 -20 10 -16 0 -20 7 -20 35 0 44 26 75 62 75
16 0 28 5 28 10 0 6 28 10 65 10 63 0 65 -1 65 -25z"/>
<path d="M7470 800 c0 -5 -16 -10 -36 -10 -27 0 -43 -7 -65 -31 -16 -17 -29
-37 -29 -45 0 -8 -4 -14 -10 -14 -5 0 -10 -11 -10 -24 0 -14 -4 -28 -10 -31
-5 -3 -10 -26 -10 -50 0 -24 5 -47 10 -50 6 -3 10 -19 10 -36 0 -16 5 -29 10
-29 6 0 10 -8 10 -18 0 -10 11 -25 25 -32 14 -7 25 -19 25 -27 0 -8 12 -13 29
-13 17 0 33 -4 36 -10 3 -5 19 -10 36 -10 16 0 29 5 29 10 0 6 8 10 18 10 9 0
26 7 36 15 10 8 23 12 27 9 12 -7 12 -64 0 -64 -5 0 -11 -13 -14 -28 -6 -30
-58 -62 -103 -62 -39 0 -94 34 -94 59 0 6 -16 11 -35 11 -24 0 -35 -5 -35 -14
0 -22 34 -76 48 -76 6 0 12 -4 12 -10 0 -5 11 -10 24 -10 14 0 28 -5 31 -10 8
-13 105 -13 105 0 0 6 11 10 25 10 14 0 25 5 25 10 0 6 9 10 20 10 11 0 20 7
20 15 0 8 3 15 8 15 22 0 32 91 32 300 l0 220 -29 0 c-21 0 -30 -6 -34 -21
l-6 -21 -22 21 c-13 12 -31 21 -41 21 -10 0 -18 5 -18 10 0 6 -11 10 -25 10
-14 0 -25 -4 -25 -10z m70 -71 c0 -5 6 -9 14 -9 7 0 19 -13 26 -30 7 -16 16
-30 21 -30 12 0 11 -127 -1 -135 -5 -3 -10 -13 -10 -21 0 -18 -24 -44 -39 -44
-6 0 -11 -4 -11 -10 0 -5 -23 -10 -51 -10 -49 0 -79 15 -79 39 0 6 -4 11 -10
11 -6 0 -10 38 -10 95 0 57 4 95 10 95 6 0 10 8 10 18 0 22 62 50 101 44 16
-2 29 -8 29 -13z"/>
<path d="M8750 800 c0 -5 -12 -10 -26 -10 -17 0 -38 -11 -55 -30 -39 -40 -41
-109 -4 -145 13 -14 29 -25 35 -25 5 0 10 -4 10 -10 0 -5 14 -10 30 -10 17 0
30 -4 30 -10 0 -5 13 -10 28 -10 36 0 82 -21 82 -37 0 -7 5 -13 10 -13 15 0
12 -29 -4 -46 -8 -8 -21 -14 -30 -14 -8 0 -18 -4 -21 -10 -17 -27 -104 1 -128
41 -13 23 -23 29 -52 29 -19 0 -35 -4 -35 -10 0 -5 5 -10 10 -10 6 0 10 -11
10 -25 0 -14 5 -25 10 -25 6 0 10 -6 10 -12 0 -28 60 -48 141 -48 46 0 79 4
79 10 0 6 8 10 18 10 28 1 72 68 72 109 -1 37 -19 71 -38 71 -6 0 -12 4 -14
10 -4 11 -89 44 -140 54 -34 6 -78 38 -78 56 0 5 10 18 22 30 39 36 158 19
158 -22 0 -14 8 -18 35 -18 40 0 45 15 18 60 -19 33 -51 50 -93 50 -17 0 -30
5 -30 10 0 6 -13 10 -30 10 -16 0 -30 -4 -30 -10z"/>
<path d="M9420 800 c0 -5 -20 -10 -45 -10 -50 0 -85 -23 -110 -74 -19 -36 -19
-36 3 -36 10 0 23 -5 29 -11 14 -14 43 10 43 34 0 31 138 57 148 28 2 -6 10
-11 17 -11 11 0 32 -67 23 -75 -8 -6 -140 -35 -163 -35 -14 0 -25 -4 -25 -10
0 -5 -9 -10 -20 -10 -27 0 -70 -43 -70 -70 0 -11 -4 -20 -10 -20 -5 0 -10 -9
-10 -20 0 -11 5 -20 10 -20 6 0 10 -8 10 -18 0 -19 17 -37 57 -59 25 -14 163
-18 163 -5 0 8 14 16 63 40 4 2 7 -5 7 -16 0 -22 18 -32 56 -32 17 0 24 6 24
19 0 11 -4 23 -10 26 -6 4 -10 67 -10 156 0 93 -4 149 -10 149 -5 0 -10 9 -10
21 0 29 -24 49 -59 49 -17 0 -31 5 -31 10 0 6 -16 10 -35 10 -19 0 -35 -4 -35
-10z m110 -248 c0 -54 -33 -112 -64 -112 -9 0 -16 -4 -16 -10 0 -14 -73 -13
-105 2 -20 9 -25 18 -25 50 0 21 5 38 10 38 6 0 10 7 10 15 0 11 12 15 45 15
25 0 45 5 45 10 0 6 23 10 50 10 41 0 50 -3 50 -18z"/>
<path d="M9870 800 c0 -5 -11 -10 -25 -10 -14 0 -25 -4 -25 -9 0 -5 -13 -14
-30 -20 -27 -9 -30 -8 -30 10 0 15 -7 19 -35 19 l-35 0 2 -207 3 -208 28 -3
c48 -6 55 17 56 168 1 76 6 136 11 138 6 2 10 11 10 20 0 19 42 42 77 42 30 0
70 -19 80 -39 4 -9 10 -86 13 -171 l5 -155 33 -3 32 -3 0 175 c0 111 -4 176
-10 176 -5 0 -10 7 -10 15 0 27 -38 55 -75 55 -19 0 -35 5 -35 10 0 6 -9 10
-20 10 -11 0 -20 -4 -20 -10z"/>
<path d="M10300 800 c0 -5 -13 -10 -30 -10 -16 0 -30 -4 -30 -10 0 -5 -6 -10
-13 -10 -16 0 -57 -42 -57 -58 0 -7 -4 -12 -10 -12 -6 0 -10 -43 -10 -110 0
-67 4 -110 10 -110 6 0 10 -7 10 -15 0 -22 50 -75 72 -75 10 0 18 -4 18 -10 0
-6 32 -10 75 -10 43 0 75 4 75 10 0 6 5 10 11 10 12 0 39 25 39 37 0 5 9 15
20 23 30 21 27 68 -4 76 -31 7 -46 -1 -46 -27 0 -10 -4 -19 -9 -19 -5 0 -12
-8 -16 -18 -7 -25 -81 -50 -97 -34 -7 7 -18 12 -26 12 -18 0 -42 25 -42 44 0
9 -4 16 -10 16 -14 0 -13 136 2 177 7 18 15 33 19 33 4 0 14 7 22 15 36 35
127 13 147 -36 14 -33 42 -38 68 -12 12 12 13 18 4 21 -6 2 -12 10 -12 19 0
24 -56 73 -84 73 -14 0 -26 5 -26 10 0 6 -16 10 -35 10 -19 0 -35 -4 -35 -10z"/>
<path d="M10740 800 c0 -5 -17 -10 -39 -10 -30 0 -47 -8 -75 -33 -20 -18 -36
-39 -36 -45 0 -7 -4 -12 -10 -12 -5 0 -10 -12 -10 -26 0 -14 -5 -46 -12 -72
-9 -35 -9 -47 0 -50 7 -2 12 -21 12 -43 0 -31 7 -47 34 -75 18 -20 46 -42 61
-50 36 -18 144 -18 181 1 36 17 74 59 74 80 0 8 5 15 10 15 6 0 10 5 10 10 0
6 -20 10 -45 10 -34 0 -45 -4 -45 -16 0 -20 -24 -44 -44 -44 -8 0 -18 -4 -21
-10 -3 -5 -17 -10 -30 -10 -13 0 -27 5 -30 10 -3 6 -13 10 -21 10 -28 0 -74
65 -74 105 l0 25 155 0 155 0 0 50 c0 28 -4 50 -10 50 -5 0 -10 9 -10 21 0 33
-73 99 -110 99 -16 0 -30 5 -30 10 0 6 -9 10 -20 10 -11 0 -20 -4 -20 -10z
m81 -83 c35 -30 45 -73 21 -86 -23 -12 -189 -8 -202 5 -12 12 -3 44 11 44 5 0
9 9 9 20 0 13 7 20 20 20 11 0 20 5 20 10 0 6 21 10 48 10 34 0 54 -6 73 -23z"/>
<path d="M8500 738 c0 -29 -2 -122 -3 -207 -3 -165 -2 -169 48 -157 l25 6 0
205 0 205 -35 0 -35 0 0 -52z"/>
</g>
</svg>
